<svg xmlns="http://www.w3.org/2000/svg" viewBox="0 0 800 800"><g fill="#fff" stroke="none"><path d="M264.5 50.1c-.4.5-.4 2-.1 3.2s12 13.7 26.1 27.7c14 14 25.5 26.1 25.5 26.8 0 .8-13.7 15-30.5 31.6L255 169.6v11.5l9.2 8.9c5 5 9.4 9 9.8 9 .3 0 4.6 3.9 9.5 8.6 5 4.7 11.4 10.3 14.3 12.5s5.6 4.7 5.9 5.5c.3 1-1 3.1-3.6 5.6-2.2 2.3-4.1 4.6-4.1 5.2s-34.9 35.9-77.5 78.4L141 392.1V412l4.3 6.1c2.3 3.3 6.6 9.2 9.4 13 2.9 3.8 5.3 7.4 5.3 7.9s1.4 2.2 3 3.7c1.7 1.4 3 3.2 3 3.9s.6 1.9 1.3 2.6 3 3.9 5.1 7.2c2.1 3.2 4.7 6.6 5.7 7.5 1.1.8 1.9 2.1 1.9 2.8 0 .6 1.1 2.4 2.5 3.9s2.5 3.2 2.5 3.9c0 .6 1.4 2.4 3 4 1.7 1.6 3 3.5 3 4.2s.4 1.3.8 1.3 1.6 1.5 2.7 3.2c1 1.8 2.9 4.4 4.2 5.9 2.4 2.5 4.3 5.5 6.2 9.4.5 1.2 1.6 2.7 2.5 3.4s1.6 1.8 1.6 2.4c0 .5 1.5 2.6 3.2 4.7 1.8 2 4.5 5.6 6.1 8.1 1.5 2.4 4.1 6.2 5.7 8.4 3.8 5 8.1 11.2 9.6 13.7.6 1 2.1 3 3.4 4.3 2.2 2.4 3.6 4.4 6.2 9.5.7 1.3 2.4 3.7 3.8 5.2 4.4 4.8 7 8.6 7 10.1 0 .8 1.4 2.4 3 3.7 1.7 1.3 3 3.1 3 4.1 0 1.1.5 1.9 1 1.9.6 0 1.5 1 2.1 2.2 1.1 2.6 4.8 8.1 7.8 11.8 3.7 4.5 8.1 11 8.1 11.9 0 .6.6 1.4 1.3 1.8.8.4 3.5 4.1 6.1 8 2.6 4 5.1 7.3 5.6 7.3.6 0 1 .8 1 1.7 0 1 1 2.7 2.3 3.8s3.3 4 4.5 6.4c1.3 2.4 3.8 6 5.7 8s3.8 4.4 4.1 5.3c.3 1 1 1.8 1.5 1.8s.9.7.9 1.5 1.4 3 3 4.8c1.7 1.9 3 3.9 3 4.3 0 .5 1 2 2.3 3.4s2.6 3.2 3 4 2.1 3.3 3.8 5.5c1.6 2.2 4.6 6.5 6.6 9.5s6.7 9.7 10.5 14.8c3.7 5 6.8 9.6 6.8 10.1 0 .4 1 1.9 2.3 3.2 1.2 1.4 5.7 7.6 10 13.9 4.2 6.3 10.2 15.1 13.3 19.5s7.5 10.7 9.8 14 4.6 6.5 5.2 7.2 2.4 3.2 4 5.7c2.3 3.6 3.5 4.6 5.6 4.6s2.9-.6 3.4-2.4c.3-1.3 1.7-3.4 3-4.7 1.3-1.2 2.4-2.8 2.4-3.4s1.4-2.4 3-4c1.7-1.6 3-3.6 3-4.6 0-.9.7-1.9 1.5-2.3.8-.3 1.5-1.1 1.5-1.9 0-.7 1.1-2.4 2.5-3.7s2.5-2.9 2.5-3.5 1.4-2.4 3-4c1.7-1.6 3-3.7 3-4.7s.4-1.8.9-1.8c.6 0 2-1.8 3.2-4 1.3-2.2 2.6-4 3.1-4 .4 0 .8-.6.8-1.3s1.4-2.6 3-4.2c1.7-1.6 3-3.4 3-4s1.1-2.2 2.5-3.5 2.5-3.1 2.5-4.1c0-.9.7-1.9 1.5-2.3.8-.3 1.5-1.3 1.5-2.2s.9-2.6 2-3.8c4.9-5.3 9-10.9 9-12.2 0-.8.5-1.4 1-1.4.6 0 1.4-.8 1.8-1.8.9-2.2 6.2-10.1 8.3-12.5.9-1 3.4-4.3 5.5-7.5 2.1-3.1 4.2-5.8 4.7-6 .4-.2.7-1.1.7-1.9 0-.9 1.4-2.9 3-4.5 1.7-1.5 3-3.5 3-4.3 0-.9.6-1.8 1.4-2.1s1.9-1.8 2.6-3.4 1.8-3.1 2.6-3.4 1.4-1.4 1.4-2.4 1.4-3.1 3-4.5c1.7-1.5 3-3.2 3-3.7s1-2.1 2.1-3.4c1.2-1.4 2.7-3.4 3.3-4.5.6-1 2.6-4 4.4-6.6 1.7-2.5 3.2-4.8 3.2-5.1s1.2-1.8 2.6-3.3 3.1-3.7 3.7-4.9c2.2-4 10.6-15.9 12.2-17.2.8-.7 1.5-1.8 1.5-2.5 0-.6 1-2 2.1-3.1 1.2-1 2.5-2.8 3.1-3.9 1.7-3.8 3.6-6.6 6-9.3 2.8-3.2 7.1-9.1 8.2-11.2 1.5-3.2 3.4-6.2 6-9.3 5.8-7.1 7.6-9.5 7.6-10.4 0-.5 1.1-2 2.5-3.3s2.5-3.1 2.5-4.1c0-.9.7-1.9 1.5-2.3.8-.3 1.5-1.1 1.5-1.9 0-.7 1.2-2.4 2.6-3.8 1.4-1.3 3-3.3 3.5-4.4s2.5-4 4.3-6.5c1.9-2.5 3.5-5 3.5-5.6.1-.6 1.4-2.4 3.1-4 1.6-1.6 3-3.4 3-3.9 0-.6 1.1-2.2 2.5-3.7s2.5-2.9 2.5-3.2c0-.8 6.2-9.7 8.8-12.6 1.2-1.3 2.2-3 2.2-3.6 0-.7.7-1.4 1.5-1.8.8-.3 1.5-1.4 1.5-2.5s.9-2.5 2-3.1 2-1.7 2-2.4.9-2.1 2.1-3.2c1.2-1 2.8-3.2 3.6-4.9.9-1.6 2.2-3.4 2.9-3.8.8-.4 1.4-1.6 1.4-2.6 0-1.1.6-2.1 1.3-2.4.8-.3 2.2-2.1 3.1-4.1s2.1-3.6 2.6-3.6c.6 0 1-.6 1-1.3 0-1.1 4.9-7.8 9.4-13 .9-.9 1.6-2.4 1.6-3.2 0-.9.7-1.8 1.5-2.1.8-.4 1.5-1.2 1.5-2s1.5-3.1 3.3-5.1c5.4-6.2 7.7-9.9 7.7-12.8 0-2.2-4.6-7.3-24.4-27.1-13.4-13.4-25.4-25.9-26.5-27.6-1.1-1.8-13.7-15-28.1-29.3-14.3-14.3-26-26.4-26-27s-11.7-12.8-26.1-27c-23.8-23.7-33.9-34.9-33.9-37.3 0-.6 1.5-1.7 3.3-2.5 1.7-.9 6.8-5.2 11.2-9.6 4.4-4.5 8.4-8.1 9-8.1s5.3-4.3 10.5-9.5 9.9-9.5 10.5-9.5c2.5 0 4.5-4.1 4.5-9.3 0-5-.3-5.7-4.5-10-2.4-2.6-4.9-4.7-5.4-4.7-1.1 0-53.1-51.8-53.1-52.9 0-.5.7-1.5 1.7-2.2.9-.8 2.4-2.7 3.4-4.4 1-1.6 11.8-12.9 23.9-25 17.4-17.4 22-22.6 22-24.7 0-1.4-.7-2.9-1.6-3.2-2.9-1.1-270.2-.7-270.9.5m143.8 49.5c8.1 1.6 16.3 12 17.5 22.1.4 4.1.3 4.3-2.1 4.3-1.6 0-2.8-.7-3.1-1.8-.3-.9-1-3.6-1.6-6-2.6-10.1-12.4-15.2-22.8-11.8-6.2 2.1-12.6 8.8-14.3 15-1.5 5.2-1.3 11.7.4 13.2.8.8 9 1.4 25.2 1.8 13.2.4 24.3 1 24.8 1.5s.7 2.1.5 3.7l-.3 2.9-24.7.5c-13.5.3-25 .9-25.5 1.3-1 1.1-2 29.6-1.2 33.8.4 1.7 1.1 3.5 1.5 3.9.5.5 10.4 1 21.9 1.1 11.6.1 22.7.4 24.8.7 3.7.4 3.8.5 3.5 4.1l-.3 3.6-24.4.3c-17.2.2-24.9.6-25.9 1.4-1.1.9-1.3 2.7-.9 7.3 1.1 12.8 9.5 21.5 20.9 21.5 8.1 0 14.1-5.2 17.4-15.2 2.6-7.8 6.4-7.5 6.4.4 0 3.9-4.8 14.1-7.9 16.6-6.7 5.5-19.6 7.3-28.3 3.9-5.5-2.1-16.5-13.2-17.3-17.5-.3-1.5-1-4.1-1.5-5.8-.6-1.7-1-4.4-1-6 0-3.7-2.1-6.8-6.2-8.8-14.3-7.2-20.8-21-16.3-34.7 2.1-6.4 8.8-13.9 15.2-17.1 5.7-2.9 6.5-3.9 7.4-10.1 1.1-8 4.5-16 9-21.1 4.8-5.4 8.5-7.6 15.4-9.3 4.8-1.1 6.5-1.1 13.8.3m-84.8 144.2c3.3 3.1 9.2 8.4 13 11.7 3.9 3.3 9.1 8.1 11.6 10.6 2.6 2.5 6.6 6.1 9 8s6.7 5.6 9.4 8.4c2.8 2.7 8.9 8.4 13.5 12.5 4.7 4.1 10.8 9.6 13.5 12.3 7.8 7.4 8.3 7.4 18.4-2.7 4.7-4.7 9.2-8.6 9.8-8.6s4.9-3.7 9.5-8.3c4.6-4.5 9.9-9.4 11.8-10.9s7.1-6.1 11.4-10.2c4.4-4.2 8.3-7.6 8.7-7.6s4.9-4.1 10-9c5-5 9.8-9 10.5-9 .8 0 1.7-.7 2-1.5.4-.8 1-1.5 1.4-1.5 1.3 0 80 79.1 80 80.3 0 .6 17.9 19 39.8 40.8 21.8 21.9 39.8 40.5 40 41.3s-3.4 6.7-8 13-9.5 13.4-11.1 15.6l-2.7 4.1-219.8-.1c-120.8-.1-221.8-.4-224.4-.7-4.6-.6-5-.9-8.8-6.7-2.1-3.4-6.2-9.3-9-13.1-2.7-3.9-5.7-8.2-6.5-9.8l-1.6-2.7 41.1-40.9c22.5-22.5 41-41.4 41-42 0-1.8 77.2-78.9 79-79 .8 0 4.2 2.5 7.5 5.7M534.9 440h85.3l-1.6 2.2c-.8 1.3-3 4.4-4.8 7l-3.1 4.8H596c-10 0-15 .4-15.8 1.2-.9.9-1.2 7.2-1.2 22.3v21.1l-4.8 7c-2.6 3.8-6.2 8.9-8 11.3l-3.2 4.4-.2-33.4-.3-33.4h-48l-.3 69.1-.2 69.1-2.5 2.3c-1.4 1.3-2.5 2.7-2.5 3.2 0 .8-3.7 6.5-5 7.8-.6.5-3 4.1-7.2 10.4l-2.8 4.1v-82c0-62.5-.3-82.4-1.2-83.3s-7.6-1.2-24-1.2c-21.4 0-22.8.1-23.8 1.9-.7 1.3-1 40.2-1 118.9v116.9l-4.2 6.4c-2.4 3.5-4.5 6.6-4.8 6.9s-1.7 2.1-3 4-2.7 3.7-3 4-1 1.4-1.6 2.4c-3.4 6.2-3.4 4.8-3.6-129.1l-.3-131.8-22.4-.3c-15-.1-22.8.1-23.5.8-.8.8-1.3 41.2-1.6 132.8l-.5 131.7-2.2-3.5c-3.3-5.2-11.1-16-14.1-19.8l-2.7-3.2-.5-119.3-.5-119.2h-48l-.5 82.2c-.4 73.1-.7 82-2 81-.8-.7-2-2.3-2.6-3.7s-3-5-5.2-8-5.5-7.5-7.2-9.8l-3.2-4.4.1-67.2c.1-37-.1-68-.5-68.9-.5-1.5-3.1-1.7-24.5-1.7H238l-.2 31.5c-.2 19.8-.7 31.6-1.3 31.7-.5.1-3.4-3.4-6.3-7.8-3-4.3-6.4-9-7.8-10.5-2.4-2.5-2.4-2.7-2.4-22.6 0-15.3-.3-20.3-1.3-21.1-.8-.7-6.8-1.3-14.2-1.4l-12.8-.3-3.3-4.5c-1.8-2.5-4-5.8-4.9-7.4l-1.5-2.9 133.7.6c73.6.4 172.2.7 219.2.7"/><path d="M362.3 152.2c-3.5 3.8-4.3 6.4-4.3 13 .1 5.2.5 7 2.8 10.3 2.9 4.2 6.8 5.7 8.3 3.3 1-1.5 1.2-24.8.3-27.2-.9-2.3-4.7-2-7.1.6m-5.8 164.3c-6.6 2.7-11.2 7.1-14.6 14.2-1.8 3.8-2.1 5.7-1.7 13.7.3 8.5.7 9.7 3.3 13.2 6.1 8.1 11 10.3 22.6 10.4 8 0 8.9-.2 12.8-3 4-2.9 6.4-6.6 5.4-8.3-.8-1.3-3.6-.7-6.7 1.6-1.7 1.2-4.4 2.8-5.9 3.5-4.2 1.8-10.2-.2-13.5-4.6-2.4-3.1-2.7-4.5-3-13.8-.4-9.2-.2-10.7 1.9-14.9 2.6-5.3 6.1-7.5 11.5-7.5 3.9 0 10.4 4 10.4 6.4 0 2 3.7 4.9 5.5 4.3 1.1-.5 1.5-2.3 1.5-7.6 0-7.5-.5-8.1-5.5-7.4-1.7.3-4.8-.2-6.9-1.1-5.3-2.2-10.1-2-17.1.9m51.7.7c-.9 1.2-.7 1.9 1.3 3.8 2.5 2.3 2.5 2.4 2.5 21.2V361l-2.5 1.6c-2.8 1.9-3.2 3.9-.9 4.8.9.3 7 .6 13.7.5 15.7 0 21.1-2 26.8-9.9 4.8-6.6 6.2-16.3 3.5-25.2-2.2-6.9-3.1-8.2-8.8-12.5l-5.2-3.8-14.6-.4c-11.8-.2-14.8 0-15.8 1.1m25.6 7.3c8.7 7.3 6 36.5-3.4 36.5-5.4 0-5.4.1-5.4-18.9 0-18.2.4-20.1 4.1-20.1 1 0 3.1 1.1 4.7 2.5m-41.6 31.8c-4.3 4.6-1.4 11.7 4.6 11.7 3.7 0 6.2-2.8 6.2-6.8 0-6.4-6.6-9.4-10.8-4.9m69.1-1.1c-2.8 1.4-3.8 5.9-2.1 9.5 1.8 3.9 7.8 4.5 10.2 1.1s2-7.3-1-9.7c-3-2.3-3.9-2.4-7.1-.9M210 377.6c-.8.3-2.1.8-2.9 1-1.1.3-.7 1.2 1.4 3.4l2.8 2.9v18.6c0 17.9-.1 18.6-2.3 21-1.3 1.4-2 3.1-1.7 3.9.6 1.4 3.6 1.6 21.5 1.6 23.4 0 23 .1 25.1-7.5 1.8-6.6 1.5-8.5-1.4-8.5-1.8 0-2.8.7-3.5 2.5-1.9 5-13.2 9.1-18.6 6.6-2.2-1-2.4-1.6-2.4-8.7 0-6.6.2-7.5 1.7-7.2 1 .2 3 2.3 4.6 4.6 4 5.9 5.1 4.4 5.5-7.2.5-13-2.2-17.7-5.4-9.7-1.6 4.1-4 5.9-5.6 4.3-1.1-1.1-1.3-12.6-.3-14.2s8.7-1.1 12.4.8c1.9.9 4.2 3 5.1 4.6s2.1 3.1 2.7 3.3c2 .7 3.6-3.8 3-8.4-.8-7.6-1.3-7.8-22-8-10-.1-18.9 0-19.7.3m52.3.2c-3 .5-2.9 2.4.2 5.8 2.5 2.7 2.5 2.9 2.5 20.2 0 17.5 0 17.6-2.5 20.2-3.3 3.4-2.5 6 1.9 6.1 11.2.4 33.7.5 36.9.1 4.4-.5 6-2.9 7.1-10.5.8-5.2.1-8.7-1.7-8.7-.7 0-2.5 2.2-4 5-1.5 2.7-3.7 5.5-4.8 6-2.7 1.5-11.1 2.4-14.3 1.6l-2.6-.6v-19.5c0-18.3.1-19.4 1.9-20 1.9-.6 3.8-4.1 2.8-5.1-.6-.6-20.5-1.1-23.4-.6m90.2-.2c-4.2 1.1-9.8 3.6-13.2 5.8-7.9 5.4-13 16.7-11.1 24.8 2.3 9.9 6.3 15.2 14.6 19.4 5 2.4 6.9 2.8 14.7 2.9 9.8 0 13.3-1.1 19.4-6.3 2.4-2 3.2-3.4 2.8-4.5-.8-2.1-5-2.2-6.7-.2-5.2 6.3-20.5 5.9-24.2-.8-3.7-6.5-4.7-15.8-2.7-23.2 2.2-8 7.2-11.5 16.1-11.5 4.7 0 5.2.3 10.3 5.5 2.9 3 5.7 5.5 6.3 5.5 1.3 0 2-12.6.9-14.7-.7-1.1-1.9-1.3-4.7-.8-2.2.4-4.7.2-5.9-.5-2.4-1.2-13.5-2.2-16.6-1.4m99 2.6c-4.7 3.5-6.2 5.6-6.9 9.3-1 5 .9 10.7 4.4 13.9 3 2.6 15.6 10 19.3 11.2 2 .7 3.2 4.4 2.3 7.2-.5 1.3-1.9 2.2-4.5 2.6-6.6 1-12.8-2-15.6-7.6-2.3-4.8-2.9-5.2-5.5-3.8-1.6.9-2 2.1-2 6.8 0 7.7 1.4 9.5 7.6 9.8 2.7.2 7.9.6 11.5.9 7.5.8 12.1-.9 17.3-6.4 2.4-2.5 3-4.2 3.4-9 .4-5.8.4-5.9-4-10.2-2.5-2.4-7.6-5.9-11.4-7.8-6.5-3.3-12.4-7.6-12.4-9.2 0-2 3.5-3.9 7.2-3.9 3.8 0 10.8 3.2 10.8 4.9 0 .4 1.1 2.1 2.5 3.7 2.5 2.8 2.7 2.8 4 1.1.9-1.3 1.2-3.5.8-7.5-.3-3.1-.8-5.9-1-6.2-.5-.5-2.7-.7-16.3-1.5-7.7-.5-8.8-.3-11.5 1.7m93.8-.6c-.4 1.2.2 2.4 2 3.8l2.7 2.2v38.1l-2.5 1.1c-2.8 1.3-3.2 3.3-1.2 5.1 1.6 1.3 18.9 1.4 22.3.1 2.7-1.1 2.3-4.6-.7-5.5-2.3-.8-3.1-3.7-2.7-10.1.3-5.3 2.2-6.6 4.2-2.9.6 1.1 1.7 2.4 2.4 3 .7.5 2.9 3.4 5 6.4 5.6 8.1 8.1 9.6 16 9.6 6.3 0 6.7-.2 7-2.3.2-1.6-.4-2.9-1.7-3.8-2.4-1.7-13.1-15.7-13.1-17.1 0-.5 1.8-2.4 3.9-4.1 9.3-7.4 4.9-20.4-7.9-23.6-1.9-.4-10.6-1-19.3-1.3-14.2-.4-15.8-.3-16.4 1.3m27.6 5.5c8.7 3 6 16.9-3.2 16.9-4.2 0-4.7-1-4.7-9.4s1.4-9.7 7.9-7.5m-163.5-3.4c-1.1 1.5-2.7 4.4-3.6 6.3-9.7 20.6-16.4 33.3-18.6 35.2-3.2 2.7-3.2 6.4.1 7.1 5.2 1.1 10.5.7 12.1-.8 2.1-2.2 2-3.2-.4-4.7-1.1-.7-2-2.2-2-3.4 0-3.6 3.1-5.4 9.1-5.4 7.6 0 9.8.8 11.6 4.3 1.4 2.8 1.4 3.2-.1 4.2-.9.7-1.6 2.2-1.6 3.3 0 1.6.8 2.3 3.4 2.8 4 .7 16.8 0 18.5-1 1.6-1 1.4-4.6-.3-5.2-.8-.3-3.8-5.5-6.7-11.7-12.5-25.9-16.5-33.2-18-33.5-1-.2-2.5.9-3.5 2.5m.5 22.3c1.2 2.2 2.1 4.5 2.1 5 0 .6-2 1-4.5 1s-4.5-.4-4.5-.9c0-2 3.5-9.1 4.6-9.1.1 0 1.1 1.8 2.3 4m94.6-9.3c-12.3 25.1-12.6 25.6-15.9 29.1-4.4 4.7-2.9 6.6 5.7 7 5.6.2 6.7 0 7.6-1.6.8-1.5.6-2.3-.9-3.7-2.1-1.9-2.6-5.1-1-7.5.7-1.1 2.9-1.5 8.2-1.6 6.1-.1 7.7.2 9.6 1.9 2.3 2.1 2.9 5.1 1.2 6.2-1.6 1-1.2 5.2.6 5.9.9.3 5.5.6 10.3.6 11.3 0 13.7-2.1 8.7-7.4-1.3-1.4-3.8-5.6-5.5-9.3-1.8-3.8-5-10.4-7.1-14.8s-5-10.5-6.4-13.7c-2.4-5-4.1-6.8-6.6-6.8-.4 0-4.2 7.1-8.5 15.7m7.8 10.3c2.2 4.8 1.6 6-2.9 6-4.4 0-5.1-1.7-2.8-6.9 2-4.6 3.2-4.4 5.7.9"/></g><g fill="oklch(42% 0.12 150)" stroke="none"><path d="M266.7 49.7c-2.4 2.3.8 6.2 26 31.5l26.7 26.9-31.1 31.2-31.8 31.8c-.4.4-.6 2.5-.7 4.6 0 3.7.6 4.5 8.8 12.5 4.9 4.7 11.6 10.8 14.9 13.6 3.3 2.7 8.5 7.5 11.5 10.6s5.9 5.6 6.5 5.6c1.3 0 8.5 7.2 8.5 8.6 0 .5-2 2.9-4.5 5.3s-4.5 4.9-4.5 5.5-34.9 35.8-77.5 78.3-77.5 77.8-77.5 78.4c0 1 11.3-9.7 24.2-22.9.7-.7 2.6-2.5 4.2-4s3.4-3.3 4-4c1.5-1.8 19.9-20 23.6-23.4 1.6-1.5 3-3.2 3-3.7s.9-1.3 2-1.6 2-.9 2-1.3c0-1.1 5.4-7 6.6-7.4 3.4-.9-.2 3.4-19.2 22.8-11.5 11.8-27.4 28.1-35.3 36.4l-14.4 15 .7 4c.4 2.4.2 4-.4 4-1.3 0-1.3 3.7 0 4.5.6.4 3.4 4 6.3 8.1 8.7 12.6 9.6 13.9 10.7 15.1.5.7 1 1.6 1 2.1s1.2 1.9 2.6 3.3c1.4 1.3 3 3.3 3.5 4.4s2.5 4 4.3 6.5c1.9 2.5 3.5 5.2 3.5 6.1.1.9 1.5 2.6 3.1 3.9 1.7 1.3 3 2.7 3 3.1 0 1.3 6.3 10.3 8.3 11.7.9.7 1.7 1.9 1.7 2.6s1.1 2.6 2.5 4.2 2.5 3.2 2.5 3.6 1.6 2.4 3.5 4.5 3.5 4.1 3.5 4.5c0 .7 6.9 10.8 15.5 22.8 10.1 14.1 11.5 16.1 11.5 16.9 0 .5.7 1.5 1.6 2.2.9.8 2.7 3 3.9 5 1.3 2 2.9 4.2 3.7 5 .7.8 2.6 3.4 4.3 5.9 1.6 2.5 4.2 6 5.7 7.8s2.8 3.9 2.8 4.6c0 .8.7 1.6 1.5 2 .8.3 1.5 1.4 1.5 2.4s1.4 2.8 3 4c1.7 1.3 3 2.9 3 3.6s.6 1.9 1.4 2.5c.8.7 3.3 4.3 5.6 8.2 2.2 3.8 4.5 6.9 5.1 6.9.5 0 1.3.8 1.7 1.9.9 2.3 9.6 15.1 13.5 19.6 1.5 1.8 2.7 3.8 2.7 4.4s.4 1.1 1 1.1c.5 0 1.2 1.1 1.6 2.4.3 1.3 1.9 3.6 3.5 5.2 1.6 1.5 2.9 3.3 2.9 3.9 0 .7.9 2 2 3s2 2.3 2 3c0 .6 1.3 2.4 3 4 1.6 1.6 3 3.4 3 3.9.1.6 1.4 2.7 3 4.6 1.7 1.9 3 4 3 4.7s.4 1.3.8 1.3c.9 0 7.2 8.6 7.2 9.9 0 .4 1.1 1.8 2.5 3.1s2.5 2.8 2.5 3.3c0 .4 2 3.5 4.5 6.7s4.5 6.1 4.5 6.4c0 .5 10.3 15.3 12.3 17.6.7.8 2.1 2.8 3.2 4.5 1 1.6 2.3 3.5 2.9 4.1.6.7 4 5.5 7.6 10.8 8.1 12.1 14.9 21.7 19.5 27.8 1.9 2.5 3.5 4.9 3.5 5.2 0 .5 11.1 15.9 12.5 17.4.6.7 4.5-.9 4.5-1.8 0-1.1 5.8-9.7 7-10.5.9-.6 7-9.3 7-10s6.1-9.4 7-10c1.1-.7 7-9.4 7-10.3 0-.4 1.1-1.9 2.5-3.4s2.5-3.2 2.5-3.8c0-.5.8-1.8 1.8-2.8 1.1-1.1 3.6-4.5 5.8-7.8 2.1-3.2 4.4-6.3 5.1-6.7s1.3-1.7 1.3-2.8.7-2.2 1.5-2.5c.8-.4 1.5-1.1 1.5-1.8 0-.6 1.2-2.5 2.5-4.1 1.4-1.7 5.2-6.8 8.5-11.5s7.1-9.7 8.5-11.2 2.5-3.3 2.6-4c0-.7 1.6-3.3 3.5-5.8 1.8-2.5 3.8-5.4 4.3-6.5s2.1-3.1 3.5-4.4c1.4-1.4 2.6-2.8 2.6-3.2 0-.5 1.4-2.8 3-5.1 1.7-2.4 4.1-5.9 5.4-7.8s3.1-4.1 4-4.9c.9-.7 1.6-1.9 1.6-2.6 0-.8.4-1.5.8-1.7.5-.2 3.8-4.8 7.4-10.3 3.5-5.5 7.3-10.7 8.2-11.5 1-.8 2.2-2.3 2.7-3.5 1.6-3.4 6-9.8 11.1-16 1.6-1.8 2.8-3.6 2.8-3.9 0-.4 1.8-3.1 4-6.1s4-5.8 4-6.3 1.2-1.9 2.6-3.3c1.4-1.3 3-3.3 3.5-4.4s2.5-4 4.3-6.5c1.9-2.5 3.5-5 3.6-5.5 0-.6 1.4-2.3 3-3.9 1.7-1.6 3-3.5 3-4.1s1.1-2.2 2.5-3.5 2.5-2.8 2.6-3.4c0-.6 1.6-3.1 3.5-5.6 1.8-2.5 3.8-5.4 4.3-6.5s2.1-3.1 3.5-4.4c1.4-1.4 2.6-2.9 2.7-3.5 0-.6 2.5-4.5 5.4-8.6 3-4.1 7.6-10.7 10.2-14.5 2.6-3.9 5.4-7.6 6-8.3.7-.7 1.3-2 1.3-2.8s.4-1.4 1-1.4c.5 0 2.1-2 3.6-4.5 1.4-2.5 3-4.5 3.5-4.5.6 0 1.5-1.4 2-3 .6-1.7 1.5-3 2-3s.9-.6.9-1.3 1.4-2.7 3-4.5c1.7-1.8 3-3.6 3-3.9s1.7-2.9 3.8-5.7c2.2-2.8 4.7-6.6 5.6-8.4.9-1.7 2.1-3.2 2.6-3.2s1.2-1 1.5-2.3c.4-1.2 1.7-3.3 2.9-4.7 2-2.3 4.5-5.7 7.1-9.9 2.8-4.5 5.1-7.7 6.3-9 .8-.8 2.4-3.1 3.7-5.2 1.4-2 2.9-4 3.5-4.4 3.1-1.9.1-5.7-24.7-30.7-14.2-14.2-26-26.4-26.2-27.1-.3-1.1-14.2-15.5-81.5-84.2-25.5-25.9-31.6-32.9-31.6-36 0-.8 1.2-2.2 2.7-3.2 1.4-1 6.4-5.5 11-10.1 4.7-4.5 9.7-8.9 11.1-9.7 1.5-.7 6.2-5 10.6-9.4 4.3-4.5 8.4-8.1 9-8.1 2.4 0 4.6-4 4.6-8.4 0-3.9-.5-4.9-4.5-9-2.5-2.5-5.1-4.6-5.8-4.6-1.9 0-52.7-51.7-52.7-53.6 0-2.6 4-7.2 27.8-31.3C530.6 59.9 535 54.8 535 52.7V50l-31.7.2-31.8.3 31.3.2c24.2.3 31.2.6 31.2 1.6 0 .7-9.7 10.9-21.6 22.7-11.8 11.8-22.5 23.2-23.6 25.2-1.2 2.1-2.7 3.8-3.2 3.8-.6 0-1.7 1.4-2.5 3.1l-1.3 3.1 20.3 20.5c11.2 11.3 21.9 21.9 23.8 23.6 1.9 1.8 4.8 4.7 6.4 6.4 1.7 1.8 3.6 3.3 4.3 3.3.6 0 2.8 1.6 4.8 3.6 3.5 3.5 3.7 3.9 3.4 9.8-.3 5.1-.6 6.1-2.2 6.4-1.1.2-5.7 4.2-10.3 8.8s-8.9 8.4-9.6 8.4-5.5 4.3-10.7 9.5-10 9.5-10.6 9.5c-3.4 0-4.9 6.5-2.3 9.9 1.1 1.3 1.9 2.8 1.9 3.3s12.4 13.3 27.5 28.5c15.1 15.1 27.5 28 27.5 28.6 0 .7 4.5 5.7 10 11.1 5.5 5.5 10 10 10 10.1s7.8 8 17.4 17.5 17.7 18.3 18 19.6c.4 1.4 1.4 2.4 2.4 2.4.9 0 2.5 1.4 3.4 3 1 1.7 3.1 3.8 4.8 4.8 1.6.9 3 2.5 3 3.4 0 1-.2 1.8-.5 1.8-.6 0-6.3-4.9-7.9-6.8-.6-.7-5.4-5.7-10.6-11-5.2-5.4-10.2-10.8-11-11.9-1.9-2.7-11.8-13-15.6-16.4-1.6-1.4-5.5-5.3-8.6-8.7-3.2-3.4-6-6.2-6.2-6.2-.4 0-7.4-7.2-17.8-18.4-3.2-3.3-16.3-16.8-29.1-29.9-23.7-24-25.7-25.5-29.1-22.2-.8.8-1.9 1.5-2.4 1.5s-1.4 1.1-2 2.5-1.9 2.5-2.8 2.5-5.5 3.8-10.1 8.5-8.9 8.5-9.6 8.5c-1.5.1-10.7 8.7-10.7 10.1 0 .5-.3.9-.8.9-.4 0-2.5 1.8-4.7 4-2.2 2.1-4.6 3.9-5.4 4-.7 0-5.1 3.8-9.8 8.5-9.2 9.2-12 11.5-14.1 11.5-.8 0-.2-1.3 1.5-3.5 1.5-1.9 3.3-3.5 4-3.5.6 0 5.1-3.8 9.8-8.5 4.8-4.7 9-8.5 9.4-8.5.3 0 4.4-3.6 9-8s8.5-8 8.7-8 1.2-.8 2.2-1.8c1-.9 3.6-3.2 5.7-5 4.9-4.1 18-16.2 28.2-26 4.1-3.9 7.9-7.2 8.3-7.2s4.7-3.8 9.6-8.5c4.8-4.7 10.1-9.6 11.7-10.8 3.8-2.8 15.8-13.6 17.4-15.7.7-.8 1.3-2.3 1.3-3.3 0-2.1-54.3-57.3-57.3-58.3-2.9-.9-10.6-9.4-10-11 .3-.8 1-1.4 1.7-1.4.6 0 3.5-2.5 6.5-5.5s5.8-5.5 6.3-5.5c.4 0 .8-.4.8-.9 0-.8 16.4-17.3 25.3-25.5 1.5-1.4 2.7-2.7 2.7-3s1.9-2.3 4.3-4.5c3.3-3.2 3.9-4.2 3-5.2-1-1-27.3-1.4-122.7-1.7-66.8-.2-122.6-.2-124.1.2-1.4.4-2.5 1.3-2.5 2.1s11 12.6 24.5 26.1 24.5 25 24.5 25.4c0 .5-14.8 15.7-33 33.8-18.1 18.2-33 33.8-33 34.7 0 2 12.5 14.5 14.4 14.5.7 0 2.8 1.8 4.6 4s4 4 4.7 4 1.3.6 1.3 1.2c.1.7 2.2 3.1 4.7 5.3 5.7 4.9 18.6 17 22.1 20.7 1.4 1.6 3 2.8 3.6 2.8s4.9 3.8 9.6 8.5c4.7 4.6 8.9 8.5 9.3 8.5 1 0 2 .8 11.1 9.5 4 3.8 9.5 8.8 12.1 11s7.7 7 11.3 10.6c3.7 3.7 7.4 7 8.4 7.5.9.5 5.9 5.1 11.2 10.1 8.2 8.1 10 9.3 12.9 9.3 2.7 0 4.4-.9 7.6-4 4.9-4.7 6.7-5.2 4.3-1-.9 1.6-2 3-2.3 3-1.2 0-6.9 5.7-6.9 6.8 0 2.6-2.2 1.9-6.3-2-9.7-9.5-18.4-17.2-21.9-19.6-2.1-1.3-3.8-3.1-3.8-3.9 0-.7-1-1.8-2.2-2.4-1.3-.6-3.6-2.8-5.2-5-1.7-2.1-3.5-3.9-4-3.9-.6 0-5.6-4.3-11.1-9.5s-10.5-9.5-11-9.5c-.6 0-5.3-4.3-10.5-9.5s-10.3-9.5-11.3-9.5-2-.7-2.3-1.5c-1.7-4.2-5.3-1.1-44.7 38.3-21.8 21.8-40.3 40.2-41 40.9l-7.2 7.2c-5.7 5.8-7.5 7.1-7.5 5.3 0-1.4 4.3-5.8 6.8-7.1 1.2-.6 2.2-1.6 2.2-2.2 0-1.4 5-5.9 6.6-5.9.8 0 1.4-.6 1.4-1.3 0-.8 4.5-5.9 10.1-11.3 5.5-5.4 11.1-11 12.2-12.3 1.2-1.3 2.8-2.9 3.5-3.5s2.1-1.9 3-3c.9-1 2.9-3 4.4-4.5 1.5-1.4 3.3-3.2 4-3.9s2.6-2.5 4.2-4 3.7-3.5 4.5-4.4c4.5-4.9 6-6.4 7.7-7.9 1.1-.9 5.1-5.1 8.9-9.4 3.9-4.3 8.9-9.6 11.2-11.9 4-4 4.1-4.2 2.7-6.9-.8-1.5-1.8-2.7-2.3-2.7-1 0-6-4.4-17.2-15.3-4.9-4.8-9.4-8.7-9.9-8.7-.6 0-5.5-4.5-11-10-7.9-7.8-10-10.5-10-12.7 0-2.4 5.1-7.9 31.5-34.2 18.9-18.9 31.5-32.2 31.5-33.3s-10.6-12.6-26-28c-15-15-26-26.9-26-28 0-1.7 2.9-1.8 68.3-2.1l68.2-.2-68.6-.3c-37.7-.1-68.9.1-69.2.5M293 60c-1.9.5-4.1.4-5 0-1-.6.1-.9 3.5-.9 4.8.1 4.9.1 1.5.9m26.3-.3c-2.9.2-7.7.2-10.5 0-2.9-.2-.6-.3 5.2-.3s8.1.1 5.3.3m30.5 0c-1 .2-2.8.2-4 0-1.3-.2-.5-.4 1.7-.4 2.2-.1 3.2.1 2.3.4m104.5 0c-18.9.2-49.7.2-68.5 0-18.9-.1-3.5-.2 34.2-.2s53.1.1 34.3.2m59.7.2c0 .8-16 .4-18.5-.4-.5-.2 3.4-.4 8.8-.4 5.3-.1 9.7.3 9.7.8M411.6 98.6c5.1 2.1 11.1 7.9 13.4 12.9 1 2.2 2.1 6.6 2.5 9.7.7 5.5.6 5.8-1.6 6.7-4.3 1.5-6.2-.1-8.2-7-1.3-4.5-2.8-7.3-5.2-9.6-11.1-10.6-30.3 1.3-29.3 18.2l.3 5 25.5.5c14 .3 25.6.7 25.8.8.8.7 0 9.2-1 9.9-.7.4-12 .8-25 .8-14.7 0-24.1.4-24.7 1-1.1 1.1-1.7 32.7-.6 34.5.4.6 8.8 1 23.5 1 12.6 0 24 .4 25.4 1 2.3.8 2.6 1.5 2.6 5.4 0 2.4-.6 4.8-1.3 5.5-.9.7-9.8 1.2-25.8 1.3l-24.4.3-.3 4.4c-.8 10.8 9.7 22.7 19 21.6 8-1.1 11.9-4.8 15.2-14.5 2.1-6 3-7 6.3-7 8.3 0 3.2 21.1-6.7 27.6-4.9 3.3-10.1 4.7-16.5 4.7-9.9-.1-13.9-1.7-21.3-8.7-6.1-5.7-11.2-16.5-11.2-23.7 0-2.8-3.4-7.9-5.2-7.9-2.5 0-11.3-7.8-14.6-12.9-3-4.7-3.6-6.6-4-12.8-.4-6.8-.2-7.8 2.9-13.9 3.3-6.6 11.7-15.4 14.6-15.4 2.5 0 6.3-4.7 6.3-8 0-4.4 3.5-14.2 6.9-19.2 6.6-9.8 13.9-13.7 25.2-13.8 4.8 0 9.1.6 11.5 1.6m61.4 10.6c0 1.6-.3 1.9-1.1 1.1-.6-.6-.8-1.6-.5-2.2 1.1-1.7 1.6-1.3 1.6 1.1m44.5 44.9c1.1 1.7-.1 2.1-1.5.4-.8-.9-.8-1.5-.2-1.5s1.4.5 1.7 1.1m8.5 8.9c0 .5-.2 1-.4 1-.3 0-.8-.5-1.1-1-.3-.6-.1-1 .4-1 .6 0 1.1.4 1.1 1m-197.9 82.5c5.7 5.3 14.6 13.5 19.8 18.3 5.1 4.8 10.4 9.4 11.6 10.2s4.7 4.1 7.8 7.2 8.1 7.7 11.2 10.2c3.1 2.6 9.3 8.2 13.8 12.6s8.8 8 9.5 8 4.9-3.8 9.4-8.5 8.7-8.5 9.2-8.5 5.1-3.9 10.2-8.8c18-16.9 27.9-25.9 31.3-28.3 1.9-1.3 6.9-5.9 11.1-10.2 4.2-4.2 8.4-7.7 9.3-7.7s2.1-.9 2.7-2 1.6-2 2.1-2c.6 0 8.7 7.6 18 17 9.4 9.3 17.4 17 17.9 17 .6 0 1 .4 1 .8 0 .5 7.7 8.5 17.1 17.8s17.8 17.8 18.7 18.8c1 1.1 3.2 3.3 5 5 1.7 1.6 3.2 3.5 3.2 4.2 0 1.5 39.6 41.4 41 41.4.6 0 1 .4 1 .9 0 1.3 19.7 21.1 21 21.1.5 0 1 .7 1 1.5s.6 1.5 1.3 1.5c.8 0 2 1.1 2.7 2.5 1.6 3 4.5 3.4 3.7.5-.3-1.1-.1-1.8.4-1.4.5.3.8 2 .6 3.7-.2 3 0 3.2 2.8 3 1.7-.1 2.2.1 1.3.4-2.4.6-2.3 2.7.1 2 1.2-.3 1.8.1 1.7 1.2 0 .9.5 1.5 1.2 1.3.8-.1 1.1.2.7.8-.3.5-.2 1.7.3 2.7.8 1.3-1 4.3-7.9 13.9-4.9 6.7-8.9 12.6-8.9 13.1s-1.6 2.5-3.6 4.6l-3.7 3.7-223.7-.2-223.8-.3-2.6-2.4c-1.5-1.4-3.4-4.2-4.3-6.3s-2-3.8-2.4-3.8-1.8-1.7-3-3.8c-1.3-2-2.6-3.9-2.9-4.2-1.3-1.1-9-13-9-14 0-.5 17.7-18.6 39.3-40.2 34.2-34.3 45.7-46.2 45.7-47.3 0-.7 18.3-18.5 19-18.5.5 0 1-.5 1.2-1 .3-1 23.4-24.5 38-38.6 3.5-3.4 8.8-8.9 11.8-12.2 3.3-3.6 6.4-6.1 7.6-6.1 1.3-.1 6 3.4 12.5 9.4M305 242c0 .5-.5 1-1.1 1-.5 0-.7-.5-.4-1 .3-.6.8-1 1.1-1 .2 0 .4.4.4 1m195.1.7c1.3 1.6 1.2 1.7-.3.4-1-.7-1.8-1.5-1.8-1.7 0-.8.8-.3 2.1 1.3M297 249.4c0 .3-.4.8-1 1.1-.5.3-1 .1-1-.4 0-.6.5-1.1 1-1.1.6 0 1 .2 1 .4m212 2.1c1.1 1.3 1 1.4-.4.9-.9-.3-1.6-1-1.6-1.5 0-1.3.6-1.1 2 .6m17 17.5c0 .5-.2 1-.4 1-.3 0-.8-.5-1.1-1-.3-.6-.1-1 .4-1 .6 0 1.1.4 1.1 1m5 4.5c.7.8.9 1.5.6 1.5-.4 0-1.4-.7-2.2-1.5-.9-.8-1.1-1.5-.6-1.5s1.5.7 2.2 1.5m3.5 3.5c.3.5.1 1-.4 1-.6 0-1.1-.5-1.1-1 0-.6.2-1 .4-1 .3 0 .8.4 1.1 1m8 8c.3.5.1 1-.4 1-.6 0-1.1-.5-1.1-1 0-.6.2-1 .4-1 .3 0 .8.4 1.1 1m-288.8 8.6c-.3.3-1.2.4-1.9.1-.8-.3-.5-.6.6-.6 1.1-.1 1.7.2 1.3.5m305.8 8.4c.3.5.1 1-.4 1-.6 0-1.1-.5-1.1-1 0-.6.2-1 .4-1 .3 0 .8.4 1.1 1M233 314c0 .5-.2 1-.4 1-.3 0-.8-.5-1.1-1-.3-.6-.1-1 .4-1 .6 0 1.1.4 1.1 1m341.7 6.2c-.3.8-.6.5-.6-.6-.1-1.1.2-1.7.5-1.3.3.3.4 1.2.1 1.9M217 329.9c0 .6-.4 1.3-1 1.6-.5.3-1-.1-1-.9 0-.9.5-1.6 1-1.6.6 0 1 .4 1 .9m372.5 3.1c.3.5.2 1-.4 1-.5 0-1.3-.5-1.6-1-.3-.6-.2-1 .4-1 .5 0 1.3.4 1.6 1M208 339.5c0 .8-.7 1.5-1.5 1.5-1.3 0-1.4-.3-.3-1.5 1.6-1.8 1.8-1.8 1.8 0m-5.4 5.7c-1.6 2.2-1.6 2.2-1.6.1 0-1.2.6-2.3 1.3-2.6 1.9-.7 2 0 .3 2.5m-3.4 3c-.7.7-1.2.8-1.2.2 0-1.4 1.2-2.6 1.9-1.9.2.3-.1 1.1-.7 1.7m405.4 1.5c-.7.7-2.6-.7-2.6-1.9 0-.6.6-.6 1.5.2.9.7 1.3 1.5 1.1 1.7M195.5 352c-.3.5-1 1-1.6 1-.5 0-.9-.5-.9-1 0-.6.7-1 1.6-1 .8 0 1.2.4.9 1m-4.2 3.9c-.5 1.8-3.3 3.8-3.3 2.4 0-.6 3-4.3 3.6-4.3.1 0 0 .9-.3 1.9m-4.3 4c0 .5-.7 1.4-1.5 2.1-1.6 1.4-1.8 1-.9-1.4.6-1.7 2.4-2.2 2.4-.7m-4 4.7c0 .8-.4 1.3-.9 1s-1.2.1-1.5 1c-.4.9-.9 1.4-1.3 1-.3-.3.2-1.5 1.2-2.6 2.2-2.4 2.5-2.5 2.5-.4m447 2.6c0 .5.7.8 1.5.8s1.5.6 1.5 1.4 1.8 2.8 3.9 4.6c2.2 1.7 4.2 3.9 4.6 4.9.3 1 1.6 2.3 3 2.9 1.3.6 3.5 2.7 4.7 4.7 1.3 1.9 2.8 3.5 3.3 3.5.6 0 2.6 1.9 4.5 4.2 6.3 7.5 6.2 7.3 3.5 9.8-1.4 1.3-2.5 2.9-2.5 3.5 0 .7-1 2-2.1 3.1-2.1 1.9-6.2 7.5-8.7 12-.7 1.3-1.7 2.4-2.3 2.4-.5 0-.9.7-.9 1.6s-1.3 3.2-3 5.1c-1.6 1.8-3 4-3 4.8s-.7 1.5-1.5 1.5c-.9 0-2.1 1.2-2.8 2.7-.6 1.6-1.7 3.4-2.4 4.1s-1.3 1.9-1.3 2.6c0 .8-.7 2-1.6 2.7-.9.8-2.8 3.2-4.2 5.4s-3.1 4.4-3.8 5c-.7.5-2.2 2.9-3.4 5.3-1.2 2.3-3.1 4.7-4.1 5.3-1.1.5-1.9 1.8-1.9 2.7 0 1-1.3 3.1-3 4.7-1.6 1.6-3 3.7-3 4.7s-.4 1.8-1 1.8c-.5 0-1.7 1.5-2.6 3.2-1.5 3.1-6.3 9.5-12.6 17.2-1.6 1.9-2.8 4-2.8 4.9 0 .8-.7 1.7-1.5 2.1-.8.3-1.5 1.5-1.5 2.6 0 1.2-1 2.5-2.5 3.2-1.4.6-2.5 1.7-2.5 2.5 0 .7-1.3 2.7-3 4.5-1.6 1.7-3 3.6-3 4.3s-.7 1.8-1.5 2.5-1.5 1.9-1.5 2.8c0 .8-1 2.4-2.3 3.6s-2.6 2.8-3 3.6c-1.2 2.6-3.1 5.2-6.9 9.4-2.1 2.3-3.8 4.9-3.8 5.9s-.7 2-1.5 2.3c-.8.4-1.5 1.4-1.5 2.3 0 1-1.3 3-3 4.6-1.6 1.6-3 3.7-3 4.7 0 1.1-.7 1.8-2 1.8s-2.2.9-2.6 2.5c-.3 1.3-1.2 2.9-2 3.6-.8.6-1.4 1.7-1.4 2.5 0 .7-1.3 2.7-3 4.4-1.6 1.7-3 3.7-3 4.5s-.4 1.5-.8 1.5-2.6 2.8-4.9 6.2q-7.65 11.7-9 10.5c-.7-.7 7.1-12.5 11.2-16.9 1.4-1.5 2.5-3.4 2.5-4.3s.7-1.8 1.5-2.1c.8-.4 1.5-1.4 1.5-2.5 0-1 .6-2.2 1.3-2.6.8-.4 2.2-2.2 3.2-3.8 1.1-1.7 3.2-4.5 4.8-6.4s3.5-4.8 4.2-6.5 2.5-4.2 3.9-5.5c1.4-1.4 2.6-2.9 2.6-3.3 0-.5 1.8-3 3.9-5.6 4-4.7 7.2-9.8 9.1-14 .5-1.2 1.3-2.2 1.7-2.2.5 0 1.7-1.7 2.8-3.8 1.1-2 3-4.5 4.3-5.5 1.2-1 2.2-2.5 2.2-3.3s.4-1.4.9-1.4 1.3-.9 1.6-2c.4-1.1 1.7-3.2 3.1-4.5 1.3-1.3 2.4-2.9 2.4-3.4 0-.6 1.3-2.5 2.8-4.3 1.6-1.8 3.7-4.9 4.8-6.8 1-1.9 3.2-5 4.9-6.8 1.6-1.8 2.8-3.4 2.5-3.5-.2-.1.6-1.4 1.9-2.9s2.9-3.5 3.5-4.6 2-3.2 3-4.8c1.1-1.6 3-4.5 4.3-6.5s3.2-4.5 4.3-5.7 2-2.5 2-3 1.1-1.8 2.5-3 2.5-3 2.5-4.1c0-1 .7-2.1 1.5-2.5.8-.3 1.5-1.5 1.5-2.7 0-1.3.8-2.3 2-2.6 1.1-.3 2.3-1.6 2.6-2.8.3-1.3 1.9-3.5 3.5-5.1 1.6-1.5 2.9-3.4 2.9-4.1 0-.8.7-1.6 1.5-1.9.8-.4 1.5-1.4 1.5-2.3s1-2.7 2.3-4.1c1.2-1.4 3.4-4.3 4.8-6.5s4-5.5 5.7-7.3c2-2.2 3.3-4.8 3.7-7.6.6-3.9.4-4.6-2.4-7.5-1.7-1.7-3.1-3.5-3.1-3.9s-5.8-6.6-12.9-13.9c-7.1-7.2-12.7-13.4-12.4-13.6.6-.7 4.3 1.5 4.3 2.5m7.5 15.6c-.3.3-1.1 0-1.8-.7-.9-1-.8-1.1.6-.5 1 .3 1.5.9 1.2 1.2M148 402.5c0 .8-.4 1.5-1 1.5-.5 0-1-.7-1-1.5s.5-1.5 1-1.5c.6 0 1 .7 1 1.5m3.5 3.5c.3.5-.1 1-.9 1-.9 0-1.6-.5-1.6-1 0-.6.4-1 .9-1 .6 0 1.3.4 1.6 1m6.5 10.7c0 2.5-1.6 1.3-3.5-2.5-3-5.7-2.9-6 .4-2.2 1.7 1.9 3.1 4.1 3.1 4.7m-11-5.9c0 .5 1.1 1.5 2.5 2.2s2.5 1.9 2.5 2.7c0 .7 1.9 4.1 4.3 7.5 2.4 3.5 6.9 10.1 10.2 14.8 3.2 4.7 6.1 8.7 6.5 9s2.7 3.7 5.2 7.5c2.5 3.9 5.3 7.7 6.2 8.4s1.6 2 1.6 2.7 1.1 2.1 2.5 3 2.5 2.4 2.5 3.4.7 2.3 1.5 3 1.5 1.8 1.5 2.4c0 .7 1.2 2.3 2.6 3.7 1.4 1.3 3.4 4 4.4 5.9s3.5 5.3 5.4 7.5c2 2.2 3.6 4.5 3.6 5 0 .6 1.1 2.2 2.5 3.7s2.5 3.2 2.5 3.7c0 .6 1.4 2.3 3 3.8 1.7 1.4 3 3 3 3.4 0 1.2 4.6 8.1 7 10.4 1.1 1.2 2 2.7 2 3.4 0 .8 1.1 2.4 2.4 3.6s2.7 3.2 3.1 4.3c.3 1.2 1.1 2.2 1.6 2.2s.9.7.9 1.5 1.8 3.3 4 5.5 4 4.7 4 5.5.4 1.5.9 1.5 1.4 1.3 2 3c.5 1.6 1.4 3 1.8 3 .5 0 2.2 2.2 3.8 5s3.2 5 3.6 5c1.2 0 5.2 7.1 4.4 7.8-.4.4-1 .1-1.2-.6-.3-.7-1.5-1.7-2.7-2.2-1.2-.4-2.2-1.7-2.3-3.1-.1-1.2-.9-2.7-1.8-3.1-.8-.5-1.5-1.7-1.5-2.6-.1-.9-1.4-2.8-3-4.2-1.7-1.3-3-3-3-3.8 0-.7-.6-1.9-1.2-2.6-2.7-2.7-5.4-6.3-8.1-10.4-1.5-2.4-3.7-5.1-4.7-6-1.1-.9-2-2.4-2-3.3s-.7-2.2-1.5-2.9-1.5-1.8-1.5-2.4-1.1-2.3-2.4-3.7-2.7-3.5-3-4.7c-.4-1.1-1.6-2.4-2.7-2.7-1-.4-1.9-1.3-1.9-2 0-.8-1.3-2.8-3-4.5-1.6-1.7-3-3.7-3-4.6 0-.8-.7-1.7-1.5-2-.8-.4-1.5-1.2-1.5-1.9 0-1.1-6.3-9.7-9.7-13.3-.7-.7-1.3-1.8-1.3-2.3s-1.1-2.2-2.5-3.7-2.5-3.2-2.5-3.8c0-.5-1.3-2.3-3-3.9-1.6-1.6-3-3.4-3-4.1 0-.6-.7-1.7-1.5-2.4s-1.5-2.1-1.5-3.1-.9-2.3-2.1-2.9c-3-1.6-5.9-4.8-5.9-6.4 0-.7-.7-1.9-1.5-2.6s-1.5-2.1-1.5-3.1c0-1.1-.4-1.9-.9-1.9s-2-1.7-3.2-3.7c-1.3-2.1-3-4.5-3.9-5.4-4-4.4-6-7.2-6-8.3 0-.7-1.1-2.3-2.5-3.6s-2.5-2.7-2.5-3.1c0-.9-5.7-9.5-7.7-11.7-1.6-1.6-1.7-3.2-.3-3.2.6 0 1 .4 1 .8m17.8 14c.2.7-.3 1.2-1.2 1.2s-1.6-.7-1.6-1.6c0-1.7 2.2-1.4 2.8.4m473.3 1.3c-.5 1.3-1 1.9-1 1.2-.1-1.5 1-4.5 1.5-4 .3.2 0 1.5-.5 2.8m-465.9 10.1c1.5 1.8 2.8 3.7 2.8 4.1 0 .5.3.6.8.4.4-.3.8.5.8 1.8.2 2.1.1 2.2-1.7.7-1.1-.9-1.9-2.1-1.9-2.7 0-.7-1.1-2.2-2.5-3.5-2.5-2.3-3.2-4-1.8-4 .4 0 2 1.5 3.5 3.2m7.8.8c0 .5-.6 1-1.4 1s-1.8-.5-2.1-1c-.3-.6.3-1 1.4-1 1.2 0 2.1.4 2.1 1m377.3 2c51.1 0 64.7.3 64.7 1.2 0 .7-1.7 3.3-3.8 5.7-2 2.4-3.9 5.3-4.2 6.5-.6 2-1.2 2.1-14.5 2.3-20.8.4-18.5-2.5-18.5 22.8V499l-4.2 6.3c-2.3 3.4-4.7 6.7-5.3 7.3-.5.6-1.7 2.2-2.5 3.4-.8 1.3-2.5 3.5-3.7 4.9-1.7 2.1-2.3 2.3-2.7 1.1-.3-.8-.7-16.1-.8-34l-.3-32.5h-46L515 525l-.5 69.5-2.9 4.2c-1.6 2.4-3.2 4.3-3.6 4.3s-1.5 1.8-2.6 4c-1 2.2-2.2 4-2.6 4-.3 0-1.7 1.7-2.9 3.7-3.5 5.7-5.7 7.9-6.9 6.7-.6-.6-1.1-30.8-1.2-83.4l-.3-82.5h-45L446 574c-.5 112.3-.6 118.7-2.3 121.7-1 1.8-2.3 3.3-2.8 3.3s-.9.6-.9 1.2c0 .7-1.4 2.8-3 4.7-1.7 1.8-3 3.9-3 4.5s-1.2 2.5-2.8 4.2c-1.5 1.6-3.4 4.1-4.3 5.4-1.4 2.1-1.8 2.3-3.3 1.1s-1.6-12.3-1.6-132.6c0-118.8-.2-131.3-1.6-131.9-3.1-1.2-39.9-.7-41.2.6-.9.9-1.2 31.6-1.2 132 0 117.5-.2 130.9-1.6 131.5-1.5.6-5.4-2.7-5.4-4.7 0-.5-.4-1-.9-1s-2-1.7-3.2-3.8c-1.3-2-2.7-3.9-3.1-4-.4-.2-.8-.8-.8-1.3 0-.6-1.8-3.4-4-6.3l-4.1-5.4-.2-118.8-.2-118.9h-46l-.5 82.7c-.4 72.8-.9 88-2.7 83.1-.2-.6-2.8-4.5-5.6-8.5-2.9-4-6-8.4-6.9-9.8-1-1.4-3.1-4.4-4.8-6.8l-3-4.2.1-59.8c0-32.8 0-63.6-.1-68.5V455h-46v32.4c0 25.1-.3 32.6-1.3 33.4s-2.4-.7-6.2-6.4c-2.7-4.1-5.3-7.4-5.7-7.4-.5 0-.8-.8-.8-1.8s-1.4-3-3.1-4.4c-3.8-3.4-4-4.9-4.2-27.3l-.2-18-13.8-.5c-13.1-.5-14-.6-15.8-2.9-1-1.3-1.9-2.9-1.9-3.6s-.3-1.5-.7-1.7c-1.8-.7-5.3-6.9-4.7-8 .5-.8 40.1-1 156.3-.5 85.6.4 184.7.7 220.4.7m-375.5 10.9c.3.8-.1 1.2-.9.9-.7-.2-1.5-1-1.7-1.7-.3-.8.1-1.2.9-.9.7.2 1.5 1 1.7 1.7m2.7 4.1c.3.5.2 1-.4 1-.5 0-1.3-.5-1.6-1-.3-.6-.2-1 .4-1 .5 0 1.3.4 1.6 1m1.2 4.2c-.3.8-.6.5-.6-.6-.1-1.1.2-1.7.5-1.3.3.3.4 1.2.1 1.9m5.3 5.8c0 1.1-.2 2-.4 2s-.6-.9-.9-2-.1-2 .4-2 .9.9.9 2m6 9.2c0 .6-.7.5-1.5-.2s-1.5-1.7-1.5-2.2c0-.6.7-.5 1.5.2s1.5 1.7 1.5 2.2m1.7 3c-.3.8-.6.5-.6-.6-.1-1.1.2-1.7.5-1.3.3.3.4 1.2.1 1.9m10.8 15.6c-.8.8-2.5-1-2.5-2.6 0-1.3.2-1.3 1.4.4.8 1 1.3 2.1 1.1 2.2m10.1 13c.6.4 1.5 1.8 1.9 3.1.7 2.4.7 2.4-1.9-.4-1.4-1.5-2.6-3-2.6-3.1 0-.6 1.4-.4 2.6.4m360.6 3.4c-.7.7-1.2.8-1.2.2 0-1.4 1.2-2.6 1.9-1.9.2.3-.1 1.1-.7 1.7M227 515.8c0 1.2-.5 1.1-2-.6-1.1-1.2-2-2.7-2-3.3 0-.7.8-.5 2 .6 1.1 1 2 2.5 2 3.3m3 4.7c0 .5-.5.3-1-.5s-1-2-1-2.5c0-.6.5-.3 1 .5s1 1.9 1 2.5m342.7-1c-.7 1.3-1.4 2-1.5 1.4-.5-1.4.6-3.9 1.7-3.9.5 0 .4 1.1-.2 2.5M235.5 527c1 1.1 1.6 2.2 1.3 2.5-.2.3-1.4-.6-2.6-2-2.6-3-1.3-3.4 1.3-.5m308.2 34.2c-.3.8-.6.5-.6-.6-.1-1.1.2-1.7.5-1.3.3.3.4 1.2.1 1.9M261 564.1c0 .5-.4.9-1 .9-.5 0-1-.7-1-1.6 0-.8.5-1.2 1-.9.6.3 1 1 1 1.6m7.7 17.9c.7.8 2.3 3.4 3.5 5.8 1.2 2.3 3.4 5.5 5 7 1.5 1.5 2.8 3.4 2.8 4.3s1.1 2.2 2.5 2.9 2.5 2.2 2.5 3.2.5 1.8 1 1.8c.6 0 1 .6 1 1.4s1.6 3.3 3.5 5.6 3.5 4.6 3.5 5.2 1.1 1.9 2.5 3 2.5 2.5 2.5 3.2 1.1 2.3 2.5 3.6 2.5 2.9 2.5 3.5 1.1 2.2 2.5 3.5 2.5 2.9 2.5 3.5c0 .7.9 2.2 2 3.5s2 2.8 2 3.5c0 .6 1.1 2.2 2.5 3.5s2.5 2.9 2.5 3.6 1 2.1 2.3 3.1 3.2 3.3 4.2 5c1.1 1.8 2.3 3.3 2.7 3.3s1.4 1.5 2.3 3.2c.8 1.8 3.2 5.5 5.3 8.2 2 2.7 4.2 5.6 4.7 6.5.6.9 1.2 1.8 1.5 2.1s1.6 2.2 3 4.2c1.4 2.1 2.8 3.8 3.3 3.8.4 0 .7.7.7 1.5s1.4 3 3 4.8c1.7 1.9 3 3.8 3 4.1 0 .4 1 2 2.1 3.5 1.3 1.7 1.8 3.4 1.4 4.2-.5.7-.4 1 .2.6 1.3-.8 7.3 4.5 7.3 6.5 0 .9.7 2.1 1.5 2.8s1.5 1.7 1.5 2.2 1.9 3.5 4.2 6.6c4 5.4 5 6.7 7.3 9.5.6.7 1.6 2.3 2.3 3.7s2.8 4.5 4.7 7c6 7.7 6.5 8.4 6.5 9.6 0 .7.4 1.4.8 1.6.5.1 1.5 1.6 2.3 3.3 1.1 2.2 2.2 3.1 4.5 3.3 2.7.3 3.3-.1 4.2-2.7.6-1.6 2-3.4 3.1-4.1 1.2-.6 2.1-2 2.1-3.1s.7-2.2 1.5-2.5c.8-.4 1.5-1.3 1.5-2.2s1-2.6 2.3-3.7c1.2-1.1 4-4.7 6.2-8s4.3-6.2 4.8-6.3c.4-.2.7-.9.7-1.6s1.1-2.5 2.5-4 2.5-3.2 2.5-3.9 1.4-2.5 3-4.1c1.7-1.6 3-3.5 3-4.2s.9-1.9 1.9-2.6 2.5-2.9 3.3-4.8 2.9-5 4.7-6.9c1.7-1.8 3.1-3.7 3.1-4.2 0-.4 1.3-2.3 2.8-4.1 3.7-4.3 6.2-8.4 6.2-10 0-.7 1.6-2.6 3.5-4.1 2.4-1.9 3.5-2.3 3.5-1.4 0 .8-.7 2-1.5 2.7s-1.5 1.7-1.5 2.2-1.1 2.1-2.5 3.6-2.5 3.2-2.5 3.8-1.3 2.4-3 4c-1.6 1.6-3 3.2-3 3.6 0 1.3-5.1 8.3-6.6 9.1-.8.4-1.4 1.7-1.4 2.8s-.7 2.2-1.5 2.5c-.8.4-1.5 1.4-1.5 2.3 0 1-1.3 3-2.9 4.7-1.5 1.6-3.6 4.4-4.5 6.1-.9 1.8-2.1 3.3-2.6 3.3-.6 0-1 .5-1 1.1 0 1.3-3.3 5.8-7.7 10.6-1.8 1.9-3.3 4.3-3.3 5.3s-.7 2-1.5 2.4c-.8.3-1.5 1.6-1.5 3 0 1.5-.7 2.5-2 2.9-1.1.3-2.4 1.6-2.9 2.9-.5 1.2-2.1 3.4-3.5 4.7-1.4 1.4-2.6 3.2-2.6 4.2 0 .9-.7 1.9-1.5 2.3-.8.3-1.5 1.5-1.5 2.6s-.6 2-1.4 2c-1.5 0-5.6-4.6-5.6-6.2 0-.5-1.7-2.7-3.7-5-2.1-2.2-3.7-4.4-3.6-4.9.2-.4-1.1-2.3-2.7-4.1-1.7-1.8-3-3.8-3-4.4 0-.7-.3-1.4-.7-1.6-.5-.2-2.6-2.9-4.7-6-2.2-3.2-4.3-5.8-4.8-5.8-.4 0-.8-.8-.8-1.8s-1.2-3.1-2.8-4.8c-1.5-1.6-3.4-4.2-4.2-5.8s-2.6-4.1-4-5.6-3.2-4-4-5.5-2.7-4.1-4.2-5.8c-1.6-1.6-2.8-3.4-2.8-3.9s-2-3.7-4.5-6.9c-2.5-3.3-4.5-6.2-4.5-6.5 0-.2-1.9-3-4.2-6.1-2.4-3-4.8-6.4-5.4-7.4-.6-1.1-2.3-3.3-3.8-4.9-1.4-1.6-2.6-3.7-2.6-4.5 0-.9-.7-1.8-1.5-2.1-.8-.4-1.5-1.1-1.5-1.6 0-.6-1-2-2.2-3.2-1.3-1.2-3.1-3.8-4.2-5.8-1-2-2.5-3.9-3.2-4.2-.8-.3-1.4-1.2-1.4-2 0-.9-1.3-2.9-3-4.6-1.6-1.7-3-3.7-3-4.5s-.4-1.5-.9-1.5-1.2-1.2-1.5-2.6c-.7-2.8-4.2-6.3-6.3-6.4-.7 0-1.3-1.1-1.3-2.5s-.7-2.8-1.5-3.1c-.8-.4-1.5-1.3-1.5-2.1 0-.9-1.3-3.1-3-5-1.6-1.8-3-3.7-3-4.2 0-.4-1.8-2.7-4-5.1s-4-5.1-4-6.1-1.8-3.5-4-5.5c-2.2-2.1-4-4.5-4-5.5 0-.9-.7-1.9-1.5-2.3-.8-.3-1.5-1.4-1.5-2.4 0-1.1-.7-2.5-1.5-3.2s-1.5-1.7-1.5-2.2c0-1.1 2.7.7 4.7 3.2m16.8 17c.3.5.1 1-.4 1-.6 0-1.1-.5-1.1-1 0-.6.2-1 .4-1 .3 0 .8.4 1.1 1m7.2 11.2c-.3.8-.6.5-.6-.6-.1-1.1.2-1.7.5-1.3.3.3.4 1.2.1 1.9m219.9 4.3c-.9.7-1.6 2.2-1.6 3.4s-.6 2.1-1.5 2.1c-.8 0-2.1 1.5-2.9 3.4-1.5 3.6-3.8 6.7-7.3 9.9-1.3 1.1-2.3 2.7-2.3 3.6 0 .8-1 2.5-2.1 3.7-2.3 2.4-4.1 5.3-5.8 9.2-.6 1.2-1.8 2.5-2.6 2.8-.9.4-2.7 2.6-4.1 5s-3 4.4-3.5 4.4-.9.8-.9 1.9c0 1-.7 2.4-1.5 3.1s-1.5 1.9-1.5 2.7c0 1.5-4.7 6.3-6.1 6.3-1.2 0-1.1-1.4.2-2.7 1.2-1.2 3.1-4.3 4.8-7.8.5-1.1 2.6-3.8 4.5-5.9 2-2.2 3.6-4.4 3.6-4.8 0-1.2 5.1-8.1 6.7-9.1.7-.4 1.3-1.7 1.3-2.7 0-1.1.5-2 1-2 .6 0 1.5-1.2 2-2.6.6-1.5 2.2-3.5 3.5-4.6 1.4-1.1 2.5-2.6 2.5-3.3 0-.8 1.1-2.6 2.5-4.1s2.5-3.3 2.5-4c0-.8.6-1.4 1.4-1.4s1.7-1 2-2.3c.3-1.2 1.8-3.7 3.3-5.5 2.3-2.7 2.9-3 3.2-1.6.2 1-.4 2.3-1.3 2.9m-59.5 75.8c-1 .9-1.1.8-.5-.6.3-1 .9-1.5 1.2-1.2s0 1.1-.7 1.8m-91.4 18.9c-.3.8-.6.5-.6-.6-.1-1.1.2-1.7.5-1.3.3.3.4 1.2.1 1.9m75.3 3.2c0 .3-.4.8-1 1.1-.5.3-1 .1-1-.4 0-.6.5-1.1 1-1.1.6 0 1 .2 1 .4M402.5 763c-.3.5-1 1-1.6 1-.5 0-.9-.5-.9-1 0-.6.7-1 1.6-1 .8 0 1.2.4.9 1"/><path d="M362.3 155.3c-3.4 4.9-3.2 13.9.3 19 2.1 3.1 2.8 3.6 4 2.6 1.2-.9 1.4-3.6 1.2-12.8-.3-13-1.5-14.8-5.5-8.8m-7 163.3c-4.4 2.2-8 6-11.4 11.9-2.4 4.1-2.9 6.2-2.9 11.6 0 14.7 10.1 24.9 24.6 24.9 6.2 0 13.4-2.8 13.4-5.1 0-.5.7-.9 1.5-.9s1.5-.5 1.5-1c0-1.5-.6-1.3-5 1.5s-11.9 3.4-15.7 1.2c-5.8-3.2-8.6-10.5-8.4-22 .2-14.1 5.5-21.2 15.8-21.1 5.4 0 5.7.2 10.4 5.3l4.9 5.4v-11l-5.2-.7c-13.1-1.7-20.2-1.7-23.5 0m1.7 3.4c0 .6-.7 1.3-1.5 1.6-.8.4-1.5 1.2-1.5 1.9s-.7 1.5-1.5 1.9c-1.2.4-1.5 3-1.5 14v13.4l3 3c1.7 1.7 3 3.5 3 4.1 0 1.8-2.8 1.3-3.9-.7-.5-.9-1.1-1.5-1.3-1.2-.5.7-4.8-3.4-4.8-4.6 0-.7-.3-1.4-.7-1.6-3.7-1.6-5.8-15.3-2.8-17.8.8-.7 1.5-2.1 1.5-3.2 0-1.4.5-1.8 1.4-1.5 1 .4 1.3.1 1-.7-.3-.7.2-2 1-2.9.9-.9 1.6-1.9 1.6-2.3s.8-1.5 1.8-2.5c1.9-2 5.2-2.5 5.2-.9m25 1.2c0 1.2-.1 1.9-.3 1.7-.1-.2-.9-1.2-1.6-2.2-1.2-1.4-1.1-1.7.3-1.7 1 0 1.6.8 1.6 2.2"/><path d="M346 348.6c0 .8.5 1.2 1 .9.6-.4.8-1.1.5-1.6-.9-1.4-1.5-1.1-1.5.7m65-29.7c0 .6.5 1.3 1 1.6.6.4 1 8.4 1 20.8 0 16.2-.3 20.7-1.5 22.3-.8 1.2-1.1 2.4-.8 2.8 1.3 1.2 18.6.6 23.8-.9 12-3.5 17.5-10.9 17.5-23.3 0-8.4-1.7-13.2-6.3-18-5-5.3-8.4-6.2-22.3-6.2-7.1 0-12.4.4-12.4.9m9 21.1c0 10.7.3 20.4.6 21.6.5 1.8.1 2.1-3 2.2-2.5.1-3.6-.3-3.6-1.2 0-.8.4-1.6.9-1.8 1-.3 1.5-28.5.7-35.8-.6-4.3-.5-4.5 1.9-4.5h2.5zm15.3-16.1c4.6 5.1 6 10.5 5.5 20.6-.5 9.1-3.3 15.5-8 18.3-3.5 2.1-7.9.7-8.9-2.8-1.1-3.9-1-34.6.1-37.4.8-2.1 1.6-2.6 4.4-2.6 2.7 0 4.1.8 6.9 3.9m6.5-.8c.9 1.2 2.8 3.2 4.1 4.4 1.6 1.6 2.2 3 1.8 4.4-.3 1.3 0 2.1.8 2.1 2.7 0 3.6 12.8 1 15.4-.8.8-1.5 2.1-1.5 3 0 1.7-6.2 8.6-7.9 8.6-.6 0-1.1-.7-1.1-1.5s.4-1.5.9-1.5 1.1-1.3 1.4-3c.4-1.8 1.1-2.8 1.9-2.5 1 .4 1.2-1 1-5.9-.2-3.5.1-7.4.8-8.5q1.05-2.1 0-2.1c-.5 0-1-.7-1-1.5s-.4-1.5-.9-1.5-1.2-1.6-1.5-3.5c-.4-1.9-1-3.5-1.4-3.5s-1.5-1.2-2.5-2.5c-1.7-2.4-1.7-2.5.3-2.5 1.1 0 2.8 1 3.8 2.1M393.2 358c-1.7 2.7-1.5 4.4.7 7.1 1.6 2 2.2 2.2 4.5 1.1 1.4-.6 2.8-2.3 3.2-3.7 1.3-5.1-5.6-8.9-8.4-4.5m5.2 1.6c1.2.5 1.3 1 .5 2.5-1.7 3.3-5.8 1.8-4.5-1.6.6-1.6 1.6-1.8 4-.9m62.8-2.4c-2 2-1.5 7.6.8 8.8 4.6 2.5 8.5-2.4 6.1-7.6-1.2-2.6-4.8-3.3-6.9-1.2m5.8 4.4c0 2.2-.4 2.5-2.7 2.2-2-.2-2.9-.9-3.1-2.4-.2-1.7.2-2.1 2.8-2.2s3 .3 3 2.4m-255 19.9c0 .8.5 1.7 1 2 .6.4 1 8.1 1 19.7 0 16.1-.3 19.4-1.6 20.9-.9 1-1.3 2.2-1 2.8.8 1.2 36.6 1.3 38.5.1 1.6-.9 3.3-8.2 2.2-9.3-.4-.4-2.3.7-4.2 2.6-2.6 2.6-4.8 3.6-9.7 4.6-10.3 2-12.8-.2-13.1-12.1-.1-4.8 1.6-7.8 4.5-7.8 2 0 6.4 4.5 6.4 6.5s1.6 1.9 2.4-.1.6-12.2-.3-15.3c-.7-2.5-.7-2.4-2.8 1.2-2.7 4.4-6.9 5.9-9 3.2-1.8-2.5-1.7-13.5.1-16.1 1.1-1.4 2.6-1.9 5.8-1.9 8.4.1 11.8 1.3 14 5.1 1.1 1.8 2.4 3.1 2.9 2.8 1.4-.8 1.1-8-.3-9.2-.8-.6-8.6-1-19-1.1-14.6 0-17.8.2-17.8 1.4m33.5.5c.3.5.2 1-.4 1-.5 0-1.3-.5-1.6-1-.3-.6-.2-1 .4-1 .5 0 1.3.4 1.6 1m-21.5 1.9c-.9 1.7-.9 13.7-.1 38.3.1 1.9.6 2.8 1.9 2.9 1.2 0 1 .3-.8 1-1.3.6-4 .9-6 .7-3.1-.3-3.5-.6-3.1-2.8.7-4.5.3-38.4-.4-40.3-.6-1.5-.1-1.7 4.4-1.7 4.8 0 5.1.1 4.1 1.9m13.4 18.1c-.3 6.4-.3 6.4-2.3 3.9-1.9-2.4-1.9-2.4.1-4.7l2.2-2.2c.1 0 0 1.3 0 3m11.6 22.3c0 1.9-1 2.7-2.6 2-1-.4-1.1-.8-.1-1.9 1.5-1.7 2.7-1.8 2.7-.1"/><path d="M221.1 396.6c0 1.1.3 1.4.6.6.3-.7.2-1.6-.1-1.9-.3-.4-.6.2-.5 1.3m-1 13c0 1.1.3 1.4.6.6.3-.7.2-1.6-.1-1.9-.3-.4-.6.2-.5 1.3m-2.1 8.3c0 .6.5 1.3 1 1.6.6.3 1-.1 1-.9 0-.9-.4-1.6-1-1.6-.5 0-1 .4-1 .9m47.7-34.7c1.4 5.7 1 39.3-.5 41.1-2.7 3.3-.5 3.7 19.6 3.4l19.7-.2 1.6-6.3c1.1-4.3 1.3-6.5.6-6.9-.6-.4-1.2-.2-1.5.5-.2.6-1.6 2.9-3.2 5.1-2.5 3.3-3.7 4.1-8.4 5.1-6.5 1.3-12.3.5-13.6-2.1-1.4-2.6-1.3-38.2.1-39.6 2.2-2.2-.3-3.3-7.7-3.3h-7.6zm11.8-.4c-1.6 1.2-1.4 41 .2 41.6 3.1 1.2.9 2.6-4.1 2.6-6 0-7.5-1-5.1-3.3 2.3-2.3 2.2-35.7-.1-39.2l-1.6-2.5h5.8c3.3 0 5.5.4 4.9.8m25.3 43.3c-.7.5-2.6.9-4.3.8h-3l3.3-1.4c1.9-.8 3.7-2.5 4-3.7.6-2.1.7-2.1 1 .6.2 1.6-.2 3.2-1 3.7m42.6-44.2c-13.6 6.2-19 20.8-12.5 34.2 3 6.3 10.1 10.8 19.4 12.1 8.8 1.4 11.1-.2 4-2.6-9.4-3.1-13.3-10.4-12.8-24 .3-6.7.7-8.4 3.1-11.9 3.1-4.2 4.2-5.1 8.7-6.7 1.6-.5 2.5-1.4 2.2-2-1-1.6-7.7-1.1-12.1.9m1.5 3.8c-.8 1-2.2 2.7-3.1 3.7-1 1.1-1.8 2.8-1.8 3.7 0 1-.4 2.1-1 2.4s-1 4.9-1 10.1c0 6.1.4 9.3 1 8.9.6-.3 1 .2 1 1.1 0 1 1.4 3.3 3.2 5.1 3 3.1 3.4 5.9.5 3.5-.8-.7-1.7-.9-2.1-.5-.3.4-1.5-.2-2.6-1.3-1-1-2.6-2.5-3.5-3.2-1-.8-1.3-2.1-.9-3.8.5-1.9.3-2.3-1-1.8-1.2.5-1.6 0-1.6-1.8 0-1.3-.7-3.4-1.6-4.7-1.5-2.1-1.5-2.5-.1-5.4.9-1.8 1.9-4.6 2.2-6.2.8-3.6 8.9-11.5 11.8-11.5 1.7 0 1.8.2.6 1.7m4.6 41.1c-.3.3-1.1 0-1.8-.7-.9-1-.8-1.1.6-.5 1 .3 1.5.9 1.2 1.2"/><path d="M335.8 404c-.7 2.4-.3 3.8.8 2.8.3-.4.4-1.7.2-3l-.3-2.3zm2.7 13c.3.5.8 1 1.1 1 .2 0 .4-.5.4-1 0-.6-.5-1-1.1-1-.5 0-.7.4-.4 1M453 381.3c-3.6 1.8-7 7.4-7 11.7 0 5.2 5 10.6 14.4 15.4 4.2 2.1 8.7 4.9 10.1 6.2 3.2 3 3.2 6.8 0 9.8-3.1 2.9-3.1 3.6-.3 3.6 3 0 8.4-4.4 10.4-8.6 3.4-7.2-1.6-14.5-14.2-20.8-9.3-4.6-12.4-7.2-12.4-10.6 0-2 .8-3.5 2.5-4.6 4.2-2.8 1.3-4.6-3.5-2.1m-.5 11.3c.7.8 1.1 2.4.9 3.6-.2 1.3-.2 1.7.2 1 .3-.6 1.5-1.2 2.7-1.2 1.8 0 1.9.2.7 1-1.5 1-1.3 1.1 5.5 1.4 1.1.1 1.9.7 1.8 1.3-.2.7.6 1.3 1.7 1.3s2.3.7 2.6 1.5c.4.8 1.3 1.5 2.2 1.5 2.1 0 7.2 4.9 7.2 7 0 .9.5 2.1 1.2 2.8.9.9.9 1.5 0 2.4-.7.7-1.2 2-1.2 3 0 3-1.4 2-3.2-2.2-.9-2.2-2.5-4.3-3.4-4.7-1-.4-2.6-1.3-3.6-2.2-1.6-1.4-1.6-1.5 0-2.7 1.4-1.1 1-1.2-2.5-.7-2.9.4-4.3.2-4.3-.6 0-.6-1-1.1-2.3-1.1-2.2 0-6.4-3.7-5.9-5.3.1-.4-.5-.7-1.3-.7s-1.5-.9-1.5-2-.5-2-1-2c-.7 0-.7-.6-.1-1.8 1-1.8 1-2 1.2-5.5.2-1.6.3-1.5.6.7.3 1.6 1.1 3.5 1.8 4.2"/><path d="M472.5 409c1 1.1 2 2 2.2 2s-.2-.9-.9-2-1.7-2-2.2-2-.1.9.9 2m78-28c-.3.5-.1 1.8.5 2.9 1.6 3.2 1.3 37-.4 40.3-1 1.9-1.1 3-.4 3.4 1.7 1.1 13.1 1.1 15.1.2 1.7-.9 1.7-1-.3-3.5-2.8-3.5-2.9-14.2-.1-16.7 1.7-1.6 2-1.4 6.2 3.6 2.5 2.9 6 7.3 7.9 9.8s4 5 4.5 5.6c2.7 2.8 13.5 2.8 13.5 0 0-.7-1.2-2.3-2.6-3.7-1.4-1.3-4.9-5.5-7.7-9.3l-5.1-6.8 5.2-4.5c4.4-3.8 5.2-5 5.2-7.9 0-4.7-2.3-8.8-6.2-11.1-3.8-2.2-14.1-3.6-15.5-2.2-.6.6-2 .6-3.7-.1-3.5-1.3-15.3-1.3-16.1 0m10.8 3.2c-.2 1.3-.4 10.7-.6 21-.1 14.3.1 18.9 1.1 19.3 3 1.1.8 2.5-4.3 2.5-5.2 0-7.2-1.1-4.1-2.3 1.2-.5 1.5-4.2 1.6-19.6 0-11.9-.3-19.9-1-21.1-1-1.9-.8-2 3.3-2 4 0 4.4.2 4 2.2m16.2 1.4c1.9 2.7 2.8 8.5 1.6 11.6-2.4 6.2-11.4 9.1-14.5 4.6-1.9-2.6-2.2-13.8-.5-17 .9-1.8 1.8-2 6.5-1.6 3.8.3 5.9 1 6.9 2.4m9 .8c2.1 1.8 2.7 3 2.3 5-.3 1.4 0 2.7.6 3 .7.3.8.7.1 1.3-.5.4-1 1.5-1 2.3 0 .9-.7 1.4-1.8 1.2-.9-.2-1.6.2-1.5.9.2.7-1.1 1.4-2.9 1.6-2.8.4-3.2.2-2.6-1.4.4-1 1.1-2.1 1.7-2.5 1.2-.8.9-7.9-.5-9.3-.5-.5-.9-1.7-.9-2.7 0-2.6 3.1-2.3 6.5.6m-6.5 20.3c0 1.4.7 3.3 1.5 4.2 3.8 3.9 6.6 7.8 7.1 9.8.4 1.3 1.1 2.3 1.6 2.3 1 0 3.8 2.5 3.8 3.4 0 .3-1.4.6-3.2.6-2.4 0-4.2-1-7-3.7-2.1-2-3.8-4.2-3.8-4.8-.1-1.5-3.6-5.5-4.9-5.5-.6 0-1.1-.5-1.1-1.1s-.7-1.7-1.5-2.5c-.8-.9-1.5-2-1.5-2.5 0-1.5 1.8-1 2.9.8.6 1.1 1.1 1.3 1.1.5 0-1.7 2.2-4.1 3.8-4.2.6 0 1.2 1.2 1.2 2.7"/><path d="M557.6 409.5c-.3.9-.6 2.2-.5 2.8 0 .7.5.1 1-1.2s.8-2.6.5-2.8c-.2-.2-.6.3-1 1.2M557 420c0 .5.5 1 1.1 1 .5 0 .7-.5.4-1-.3-.6-.8-1-1.1-1-.2 0-.4.4-.4 1m29.1-26.4c0 1.1.3 1.4.6.6.3-.7.2-1.6-.1-1.9-.3-.4-.6.2-.5 1.3m-10.4 15.3c-.3 1.3-.1 1.8.9 1.4.7-.2 1-1.1.7-1.9-.7-1.9-1-1.8-1.6.5m8.9 10.6c.4.8.8 1.5 1 1.5s.4-.7.4-1.5-.4-1.5-1-1.5c-.5 0-.7.7-.4 1.5M364.5 382c.3.5 1.5 1 2.6 1s3.9 2 6.2 4.5c2.4 2.5 4.6 4.5 5 4.5s.7-2.5.7-5.5V381h-7.6c-4.7 0-7.3.4-6.9 1m11.5 3.5c0 .8-.2 1.5-.4 1.5s-.6-.7-1-1.5c-.3-.8-.1-1.5.4-1.5.6 0 1 .7 1 1.5m34.3-2.7c-.3.9-4.3 9.4-8.9 18.8-4.6 9.3-8.4 17.3-8.4 17.7 0 .3-1.4 2-3 3.7-1.7 1.7-2.8 3.5-2.5 4.1.7 1 8.8 1.3 9.8.2.4-.3 0-1.5-.9-2.5-2.8-3-.8-7.8 4.3-10.4 3.7-1.9 4-2.2 2.2-2.7-2.4-.6-2.2-3 .9-10 2.3-5.4 4.7-4.9 7.7 1.5 2.9 6.2 3 7.4.9 8.6-1.3.7-1 1.1 1.6 2.2 3.8 1.6 7 7.4 6.3 11.3-.5 2.6-.4 2.7 4.3 2.9 12 .4 13.4-.2 10-4.6-1.4-1.9-3-4.5-3.5-5.8s-4.5-9.8-9-18.9c-7.7-16.1-10.5-19.9-11.8-16.1m3.7 5.3c0 1.1.7 2.2 1.5 2.5.8.4 1.5 1.8 1.5 3.4s.7 3 1.5 3.4c.8.3 1.5 1.2 1.5 2 0 1.6 2.9 7.3 4.8 9.4.6.7 1.2 2.2 1.2 3.2s.7 3.1 1.5 4.6c.8 1.6 1.5 3.8 1.5 4.9 0 1.7.2 1.7 1 .5.8-1.3 1-1.2 1 .2 0 1 .4 1.8.9 1.8s1.1.7 1.5 1.5c.4 1.2-.5 1.5-5.5 1.5h-6l.3-6.5c.3-6-.3-8.2-1.5-5.3-.3.8-.6.6-.6-.5-.1-1-.9-1.7-2.2-1.7-1.9 0-2-.4-1.5-3.4.5-2.5.3-3.5-.9-4-.8-.3-1.5-1.8-1.5-3.4 0-3.2-3.8-7.5-6.1-6.9-.8.2-1.1.2-.6 0 .4-.3.7-1.1.7-1.9s.4-1.4 1-1.4c.5 0 1.3-1.2 1.6-2.8.4-1.5.9-3 1.1-3.5.7-1.3 2.3.3 2.3 2.4m-20 38.1c0 .5-1.1.8-2.5.8-2.4 0-2.4-.1-.8-2 1.3-1.4 1.9-1.6 2.5-.7.4.6.8 1.5.8 1.9"/><path d="M411.7 392.1c.7.7 1.5 1 1.8.7s-.2-.9-1.2-1.2c-1.4-.6-1.5-.5-.6.5m1.3 3.8c0 .5.7 1.1 1.5 1.5.9.3 1.5 0 1.5-.9 0-.8-.7-1.5-1.5-1.5s-1.5.4-1.5.9m8 14.1c-.8.5-1.1 1.2-.7 1.6s1.3.2 1.9-.4c1.5-1.5.7-2.4-1.2-1.2m3.1 4.5c.1 1.9 1.8 5.1 1.8 3.5 0-.8-.4-2.2-.9-3s-.9-1.1-.9-.5m2.9 6.1c0 .8-.4 1.2-1 .9-.5-.3-1-.2-1 .3 0 .6.7 1.2 1.5 1.6 1.1.4 1.5-.1 1.5-1.9 0-1.4-.2-2.5-.5-2.5s-.5.7-.5 1.6m40-38.7c0 .5.9 1.2 2 1.6 1.1.3 3.5 2.5 5.5 4.7 1.9 2.3 3.8 3.9 4.1 3.5.3-.3.3-2.9-.1-5.6l-.7-5.1h-5.4c-3 0-5.4.4-5.4.9m41.6 8.4c-2.5 5.1-4.6 9.8-4.6 10.4s-.7 1.6-1.5 2.3-1.5 2.1-1.5 3.1c0 1.1-.4 1.9-1 1.9-.5 0-1 .6-1 1.2 0 1.9-4.5 10.5-7.6 14.5-3.1 4.1-2 5.7 3.5 4.9 4.3-.6 4.3-.7 3-4.2-1.5-4 .3-8.3 4.1-9.7 3.4-1.3 3.6-1.9 1.6-3.6-1.2-1-1.2-1.9-.3-4.4.6-1.8 1.7-3.8 2.4-4.5s1.3-2 1.3-2.8.9-1.4 2-1.4c1.4 0 2.6 1.3 3.9 4.2 3.2 7 3.4 8.5 1.4 9.7-1.6.9-1.5 1.1.9 2 3.9 1.5 7 6.8 6.3 10.7-.5 2.7-.2 3.2 1.7 3.8 3.7.9 11.8.7 14-.5 2-1.1 2-1.1-.4-3.7-1.3-1.5-2.9-3.8-3.5-5.2-7.5-16.3-18.4-38-19.1-38-.5 0-3 4.2-5.6 9.3m7.5-2.1c.7 1.8 1.9 3.7 2.6 4.1s1.3 1.9 1.3 3.2c0 1.4.5 2.5 1 2.5.6 0 1 1.3 1 3 0 1.6.6 3.3 1.3 3.7 2.5 1.6 4.9 6.5 4.5 9.3-.3 2-.1 2.7.9 2.3.8-.3 1.3.3 1.3 1.8 0 1.3 1.4 3.8 3.2 5.6l3.2 3.3H524v-5.4c0-3 .3-5.6.8-5.9.4-.2.1-.2-.6-.1-1.9.5-5.7-3.8-5.4-6.2.2-1.2-.4-2.4-1.2-2.7-.9-.4-1.6-1.5-1.6-2.6 0-3.4-3.3-8.1-5.7-8.1-2.6 0-3.1-1.8-.8-2.6.8-.4 1.2-1 .9-1.5s.2-1.2 1-1.5c.9-.3 1.6-1.7 1.6-3 0-3.4 1.5-3 3.1.8M495 425c0 1.1-.7 2-1.5 2-1.8 0-1.9-1.2-.3-2.8s1.8-1.5 1.8.8"/><path d="M514 394c0 .5.5 1 1.1 1 .5 0 .7-.5.4-1-.3-.6-.8-1-1.1-1-.2 0-.4.4-.4 1m8.5 17c-.4.6-.3 1.6.3 2.2s1.2.6 1.7-.2c.4-.6.3-1.6-.3-2.2s-1.2-.6-1.7.2m5.1 9.7c.9 3.8 1.4 4.2 1.4 1 0-1.4-.5-2.9-1-3.2-.7-.4-.8.3-.4 2.2m-81.9-4.3c-.6 1.6-.1 9.5.7 10.3.3.3 2.8.5 5.6.5 7.4-.1 7.7-.2 5.5-1.4-3.3-1.8-7.6-6.1-8.6-8.6s-2.4-2.9-3.2-.8m4.5 7.9c-.7 1.4-2.5.1-2.9-2.1-.3-2.1-.2-2.1 1.5-.4 1.1.9 1.7 2.1 1.4 2.5m-77.7-1.9c-1.6 1.3-4.6 2.7-6.5 3.1-3.3.8-3.4.9-1 1.5 2.9.7 6 .2 6-1.1 0-.5.6-.9 1.3-.9 1.4 0 4.7-3.1 4.7-4.3 0-1.3-1.5-.7-4.5 1.7m90.1 5.5c-1.8.7-1.8.8-.3 1.4 2.1.8 4.9-.2 4.1-1.4-.6-1-1.2-1-3.8 0"/></g><g fill="#191b13" stroke="none"><path d="M267 51.8c0 1 11.4 13.3 26.5 28.5C308.1 95 320 107.4 320 107.9c0 .4-14.4 15.2-32 32.7-26.9 26.7-32 32.3-32 34.6s2 4.8 9.4 12.1c5.1 5 10.8 10.3 12.6 11.7 1.7 1.4 6.6 6 10.8 10.2 4.3 4.3 8.2 7.8 8.7 7.8 1.4 0 8 6.2 9.4 8.7.9 1.8.7 2.3-1.4 3.7-1.4.9-3.9 3.6-5.6 5.9-3.2 4.5-10.6 12-51.6 52.9-14.2 14.2-26.5 26.5-27.4 27.5s-19.1 19.1-40.3 40.2L142 394.3v6.2c0 3.8.6 7.5 1.7 9.5 2 4.1 9.9 15.6 13 19 1.3 1.4 2.3 3 2.3 3.7s.8 2.2 1.8 3.2c.9 1.1 3.3 4.1 5.2 6.7 1.9 2.5 4.3 5.4 5.3 6.3.9.8 1.7 2.3 1.7 3.2s.7 2.2 1.5 2.9 1.5 2 1.5 2.9 1.4 2.5 3 3.6 3 2.4 3 2.9c0 1.2 6.5 11 8.4 12.5.9.8 1.6 1.8 1.6 2.3 0 .6 1.2 2.4 2.6 4.2 4.3 5.3 16.4 22.5 16.4 23.4 0 .5 1.3 2.2 3 3.8 1.6 1.6 3 3.7 3 4.7s.7 2 1.5 2.3 2.3 2 3.4 3.7c1.2 1.8 3.6 5.2 5.5 7.7s3.5 5.3 3.5 6.2c.1.9 1.2 2.5 2.6 3.6s2.5 2.3 2.5 2.6 2.5 4 5.5 8.1c3 4 5.5 7.8 5.5 8.2s1.4 2.1 3 3.7c1.7 1.6 3 3.5 3 4.1 0 .7.7 1.8 1.5 2.5s1.5 2.1 1.5 3.1.8 2 1.8 2.3c1.5.5 5.6 6 8.7 11.8.5 1 1.3 1.8 1.7 1.8.5 0 .8.7.8 1.5s2 3.7 4.5 6.5 4.5 5.6 4.5 6.2c0 .7 1.8 3.3 4 5.9s4 5.1 4 5.5 1 1.8 2.1 3c2.2 2.3 3.6 4.5 6.1 9.4.7 1.4 2.5 3.5 3.9 4.7 1.5 1.3 3.2 3.6 3.9 5.3.7 1.6 1.6 3 2.1 3s.9.8.9 1.7c.1 1 1.4 2.9 3 4.3 1.7 1.3 3 3 3 3.7 0 .6 1.1 2.4 2.5 3.9s2.5 3.1 2.5 3.7c0 .5 1.6 3 3.6 5.4 4.2 5.1 10.4 14.2 10.4 15.2 0 .5.9 1.6 2.1 2.7 1.8 1.6 10.6 14 16.9 23.9.8 1.3 4.9 7 9 12.6 4.1 5.7 8 11.1 8.5 12 1.8 3 4.9 7.3 9.2 13.1 2.4 3.1 4.3 5.9 4.3 6.2 0 1.1 6.4 9.6 7.2 9.6.4 0 .8.7.8 1.6 0 .8 1.8 3.7 4 6.3s4 5.1 4 5.7c0 .5 1.2 2 2.6 3.3 3 2.9 4.4 1.8 8.3-6.4.5-1.1 2.1-3.1 3.5-4.4 1.4-1.4 2.6-3 2.6-3.8 0-.7.9-1.8 2-2.5s2-2.1 2-3.1.7-2 1.5-2.3c.8-.4 1.5-1.2 1.5-1.9 0-.8 1.7-3.4 3.8-5.8 2-2.5 5.7-7.5 8.2-11.2 2.5-3.6 5.7-8.1 7.3-9.9 1.5-1.9 2.7-3.8 2.7-4.3 0-.6.9-2 2-3.3s2-2.8 2-3.4.8-1.6 1.8-2.2c.9-.6 2.7-3.1 3.9-5.5 1.2-2.5 3.4-5.6 4.8-6.9s2.5-2.9 2.5-3.5 1.1-2.2 2.5-3.5 2.5-2.9 2.5-3.5c0-.7.9-2 2-3s2-2.3 2-2.9c0-.7 1.5-2.6 3.4-4.4s3.8-4.3 4.2-5.5 1-2.4 1.3-2.7c.4-.3 2.2-3 4.1-6s4.3-6.1 5.3-6.9c1-.7 2.2-2.3 2.8-3.5 1.3-3 3-5.6 6.2-9.4 1.5-1.8 2.7-3.9 2.7-4.6 0-.8 1.1-2.1 2.5-3s2.5-2.3 2.5-3.2c0-.8.6-1.7 1.4-2s1.7-1.6 2-2.8 1.7-3.5 3.1-5 2.5-3.4 2.5-4.2c0-.7.4-1.4.9-1.4s1.2-.8 1.5-1.8c.3-.9 1.8-3.1 3.2-4.7 2.5-3 10.9-14.9 13-18.6.6-1 1.9-2.7 3-3.6 1.1-1 2.5-2.9 3.2-4.3 3.3-6.4 4.4-8.1 6.3-9 1-.6 1.9-1.8 1.9-2.6s1.1-2.5 2.4-3.7 2.6-3.2 3-4.5c.4-1.2 1.2-2.2 1.7-2.2s.9-.6.9-1.4c0-.7 2.5-4.4 5.5-8.2s5.5-7.3 5.5-7.7 1.1-1.8 2.5-3.1c1.3-1.2 2.9-3.3 3.5-4.7 1.8-4 3.6-6.9 5.9-9.3 1.1-1.2 2.1-2.7 2.1-3.3 0-.7 1.1-2 2.4-3s2.6-2.9 3-4.1 1.2-2.2 1.7-2.2.9-.7.9-1.5 1.4-3 3-4.8c1.7-1.9 3-3.9 3-4.4s1.1-2 2.5-3.3 2.5-2.7 2.5-3.1 1.1-2 2.5-3.5 2.5-3.2 2.5-3.9.9-2 2-3 2-2.2 2-2.8c0-.5 1.4-2.5 3-4.4 1.7-1.8 3-4 3-4.7 0-.8.6-1.6 1.4-1.9.7-.3 2.6-2.7 4.1-5.4 1.6-2.6 3.9-5.9 5.2-7.3s2.3-3 2.3-3.6.9-1.9 2-2.9 3.4-4.3 5.1-7.2c1.7-3 4-5.9 5-6.6 1-.6 1.9-1.9 1.9-2.9 0-.9 1.4-3 3-4.6 1.7-1.7 3-3.8 3-4.6 0-.9.4-1.6.9-1.6.6 0 1.6-1.1 2.3-2.4 2.4-4.3 6.5-10.1 8.2-11.5.9-.7 1.6-1.9 1.6-2.5 0-.7 1.4-2.6 3-4.3l3-3.1-2.7-3.2c-1.6-1.8-13.2-13.7-25.9-26.4s-23.5-23.9-24-24.9c-.6-1-13-13.8-27.7-28.6S557 290.8 557 290.3s-12.6-13.5-28-28.9c-15.4-15.3-28-28.7-28-29.7s-.7-2-1.5-2.3c-.9-.4-1.5-1.9-1.5-3.5 0-2.2.8-3.4 3.8-5.3 2-1.3 7.5-6.3 12.2-11 4.6-4.7 8.9-8.6 9.5-8.6s5-3.8 9.7-8.5c4.8-4.7 9.3-8.5 10-8.5 2.2 0 3.6-3.4 3.2-8-.2-3.9-.9-5-4.9-8.5-2.6-2.2-16.8-15.9-31.6-30.5-29.3-28.9-28.7-28-22.8-33.6 1.6-1.5 2.9-3.3 2.9-3.8 0-.6 9.9-11 22-23.1 16-16 22-22.5 21.8-24-.3-2-1.2-2-133.5-2.3-128-.2-133.3-.1-133.3 1.6m258.6 4.3c.8 1.4-42.8 45.9-47.3 48.3-1.9 1-3.3 2.5-3.3 3.6 0 1.8 5.5 7.6 11.5 12.2 6.6 5 55.5 55 55.5 56.7 0 1.8-6.7 8.6-16.9 17.1-2.9 2.5-8.1 7.1-11.5 10.3-3.3 3.2-7.7 7.1-9.6 8.5-2 1.5-7.1 6.1-11.5 10.3-14.5 13.7-23 21.5-26 23.8-1.6 1.3-7.9 6.9-13.9 12.4-6 5.6-11.5 10.6-12.2 11s-5.1 4.3-9.6 8.7c-4.6 4.4-8.8 8-9.4 8-.5 0-2.8 1.9-5 4.2-5.9 6.3-13.4 12.8-14.9 12.8-1.9 0-6.3-3.6-14.6-12.2-4.2-4.3-8.1-7.8-8.6-7.8-.6 0-5.3-4.3-10.6-9.5-5.2-5.2-9.9-9.5-10.4-9.5s-5.2-4.3-10.6-9.5c-5.3-5.2-10.2-9.5-10.8-9.5s-4.9-3.8-9.5-8.5c-4.7-4.7-8.9-8.5-9.4-8.5s-5.2-4.3-10.5-9.5c-5.2-5.2-9.9-9.5-10.3-9.5-.5 0-5.4-4.5-10.9-10s-10.6-10-11.2-10c-1.7 0-13.1-12-13.1-13.7 0-.8 14.9-16.3 33-34.5 18.2-18.1 33-33.5 33-34.1 0-.7-11.1-12.2-24.5-25.6C289 68.7 278 57.1 278 56.4c0-1.2 19.7-1.4 123.4-1.4 89 0 123.7.3 124.2 1.1M316.1 234c.8 0 5.7 4.2 10.9 9.3s10.3 9.8 11.2 10.3c1.6.9 14.9 12.9 26.3 23.6 3.3 3.2 6.3 5.8 6.8 5.8.4 0 .7.7.7 1.5s.3 1.5.8 1.5c.4 0 1.8 1 3.2 2.3s3.3 2.8 4.3 3.3c1 .6 6 5.2 11.1 10.2 8.2 8.1 12.6 11 12.6 8.4 0-1.3 5.6-7.2 6.8-7.2.7 0 1.2-.4 1.2-.8 0-1.2 6.9-8.2 8-8.2.5 0 5-4.1 10.1-9 5.1-5 9.7-9 10.2-9 .6 0 5.6-4.5 11.2-10 5.5-5.5 10.6-10 11.2-10s4.8-3.8 9.4-8.5 8.9-8.5 9.5-8.5 2.8-1.6 4.8-3.5c2.1-1.9 4.6-3.5 5.7-3.5 1.2 0 10.1 8.2 23.5 21.7 11.9 12 22.4 22.9 23.5 24.3 1.9 2.4 27.5 28.7 83.9 85.9 15.1 15.4 27.7 28.8 28.1 29.8s1.6 2.7 2.8 3.7c2.8 2.6 2.8 7.6-.1 10.8-1.3 1.4-2.7 3.2-3.3 4.1-.5.8-3.1 4.5-5.7 8.2-2.7 3.6-4.8 6.8-4.8 7.1 0 .8-8.4 12-12.4 16.4-.7.8-1.7 2.5-2 3.7-.4 1.3-1.2 2.3-1.7 2.3s-.9.7-.9 1.4c0 .8-1.1 2.7-2.5 4.2s-2.5 3-2.5 3.4-1 1.8-2.2 3.2c-3.2 3.5-6.8 8.6-6.8 9.5 0 .5-1.3 2.4-3 4.3-1.6 1.9-2.9 3.9-3 4.4 0 .8-3.2 5.1-7.5 10-1.1 1.3-3.1 4.4-4.5 7s-3.5 5.7-4.7 6.8c-1.3 1.2-2.3 2.7-2.3 3.3 0 .7-1 2-2.1 3.1-1.2 1-2.5 2.8-3 3.9-1.3 2.9-3.1 5.5-5.7 8.4-1.3 1.5-5.3 7.3-9 13s-8.2 12-9.9 14.1c-1.8 2.1-3.3 4.1-3.3 4.6s-1.4 2.4-3 4.3c-1.7 1.8-3 3.8-3 4.3s-.4 1.4-1 2.1c-.5.7-2.5 3.1-4.2 5.4-1.8 2.4-4.3 5.6-5.5 7.2-1.3 1.6-2.3 3.3-2.3 3.9 0 .5-.8 1.9-1.7 3.1-6 7.3-12.3 16.7-12.3 18.1 0 .6-.4 1-.9 1s-2 1.7-3.2 3.7c-1.3 2.1-2.9 4.4-3.7 5.2-.7.7-2.8 3.6-4.6 6.5-1.8 2.8-4 5.7-4.9 6.5-1 .7-1.7 1.9-1.7 2.7 0 .7-1.2 2.5-2.7 4.1-2.8 2.7-4.4 5-6.2 8.9-.9 2-8.7 12.9-13.4 18.7-1.2 1.5-2.4 3.3-2.6 3.9s-1.7 3-3.3 5.2c-1.6 2.3-4 5.8-5.4 7.9s-3.1 4-3.9 4.4c-.8.3-1.5 1.1-1.5 1.9 0 .7-1.4 3.3-3 5.6-1.7 2.4-3.8 5.4-4.8 6.8-.9 1.4-3.3 4.6-5.4 7.1s-3.8 4.8-3.8 5.2c0 1.1-7.8 12.3-9.5 13.7-.8.7-1.5 1.8-1.5 2.4 0 .7-1.1 2.3-2.5 3.6s-2.5 2.7-2.5 3.2c0 1-8.5 13.4-11.3 16.5-2 2.2-2.6 3.1-6.1 9.4-1 1.9-2.7 4-3.7 4.7-1.1.7-1.9 2.1-1.9 3.1 0 1.8-4.2 3.8-4.8 2.3-.1-.4-1.1-2.1-2.2-3.7-1.1-1.7-2.5-3.9-3.2-5-2.8-4.4-10.2-14-11-14.3-.4-.2-.8-1.2-.8-2.2s-.7-2-1.5-2.4c-.8-.3-1.5-1.1-1.5-1.9 0-.7-1.2-2.4-2.6-3.8-1.4-1.3-3-3.3-3.5-4.4s-2.5-4-4.3-6.5c-1.9-2.5-3.5-5.2-3.5-6.1-.1-.8-1.4-2.5-3.1-3.7-1.6-1.3-3-2.7-3-3.3 0-1.1-2.1-4-7.2-10.3-1.6-1.9-2.8-3.8-2.8-4.3 0-.6-1.3-2.6-3-4.4-1.6-1.9-3-3.8-3-4.2 0-.7-4.6-7.4-6-8.7s-8-11.1-8-11.8c0-.5-1.1-1.9-2.5-3.2s-2.5-3-2.5-3.7c0-.8-.7-1.6-1.5-2-.9-.3-2.4-2.2-3.5-4.2-1-2.1-2.6-4.4-3.5-5.1-1-.8-2.1-2.3-2.6-3.5-1.3-2.9-3-5.6-6.1-9.3-1.6-1.8-2.8-3.6-2.8-4s-1-1.9-2.2-3.3c-1.3-1.4-2.7-3.2-3.3-4.1-4.1-6.2-6.5-9.6-8.4-11.2-1.1-1.1-2.1-2.5-2.1-3.1 0-.7-.7-1.8-1.5-2.5s-1.5-2-1.5-2.9-.9-2.2-2-2.9-2-1.8-2-2.5c0-.8-1.2-2.4-2.6-3.8-1.4-1.3-3.9-4.8-5.6-7.7-1.7-3-4.2-6.7-5.7-8.2-1.4-1.5-3.9-5.1-5.6-7.9-1.6-2.8-3.3-5.1-3.7-5.1s-1.4-1.2-2.2-2.8c-.8-1.5-2.6-4-4-5.6s-2.6-3.5-2.6-4.3c0-.7-.4-1.3-.9-1.3s-1.3-1-1.7-2.3c-.3-1.2-1.5-3-2.5-3.9-2.1-2-7.9-10.3-7.9-11.3 0-.4-1.2-1.9-2.6-3.4s-3.1-3.6-3.7-4.8c-2.8-4.8-10.6-16-12.1-17.2-.9-.7-1.6-1.9-1.6-2.5 0-.7-1.1-2.3-2.5-3.6s-2.5-2.9-2.5-3.5-1.3-2.5-3-4.1c-1.6-1.6-3-3.2-3-3.6 0-.7-2-3.7-10-14.8-2.2-3-4-6.1-4-6.8 0-.6-.4-1.2-.9-1.2s-2.3-2.1-4-4.8c-5.3-8-11.5-16.7-13.8-19.2-1.3-1.3-2.3-2.7-2.3-3.2 0-1-8.7-13.5-11.3-16.3-1-1.1-2.3-2.9-2.8-4-1.9-3.9-3.7-6.7-6.1-9.3-4.2-4.6-7-10-6.1-11.7 1.5-2.6 26.6-28.2 97.4-99.3 37.8-37.9 69.3-69.2 70-69.5.8-.2 1.9.2 2.5.9.6.8 1.7 1.4 2.5 1.4"/><path d="M286.5 58.9c-.3.5-.1 1.2.5 1.6.5.3 50.2.6 110.4.5 67.7 0 110.3.3 111.9.9 2.8 1.1 6.5-.8 5.3-2.7-.9-1.5-227.2-1.7-228.1-.3m68.8 261.2c-4.1 1.9-8 6.4-11.7 13.6-1.9 3.8-2.1 13-.4 17 3.3 7.6 12.8 15.3 19 15.3 2.6 0 1.3-1.6-1.7-2.2-1.1-.2-2.5-1.4-3.1-2.7-.7-1.3-1.6-2.6-2.1-3-2.6-1.7-4.2-9.2-3.9-17.8.2-8.6.4-9.2 4.2-14.9 2.4-3.6 4.9-6.1 6.4-6.5l2.5-.7H362c-1.4 0-4.4.8-6.7 1.9m58.7 20.3c0 11.8-.3 22.1-.6 23-.5 1.4.3 1.6 5.5 1.6h6.1l-1.5-2.4c-1.4-2.1-1.6-5.6-1.3-23l.3-20.6H414zm-36-19.7c0 .5.9 1.9 2 3.3l2 2.5v-3.3c0-2.5-.4-3.2-2-3.2-1.1 0-2 .3-2 .7m57-.4c0 .4 1.5 2.7 3.3 5.3 3.2 4.5 3.2 4.6 3.2 16.8v12.2l-3.2 4.1c-3.7 4.6-3.4 5.9 1.1 3.6 8.1-4.1 11.6-10.2 11.6-20.3 0-7.8-1.8-12.4-6.8-17.9-2.4-2.7-9.2-5.4-9.2-3.8m-39.7 37.4c-1.6.6-1.7 5.5-.1 7.1 1.7 1.7 2.6 1.5 4.4-1.3 1.6-2.4 1.6-2.7-.1-4.5-1.9-2.1-2.2-2.2-4.2-1.3m66.7 1.1c-2.4 2-1.9 4.6 1.2 6.3 2.5 1.3 4.8-.4 4.8-3.7 0-3.4-3.2-4.8-6-2.6m-247.2 42.3c.2 12-.1 21.2-.7 23l-1 2.9h7.5c7.6 0 8.8-.6 5.4-2.8-1.7-1.1-2-2.3-2-9.8 0-7.7.2-8.6 2-9.1 1.1-.3 2-.8 2-1.2 0-.3-.9-1.2-2-1.9-1.7-1.1-2-2.3-2-9.6 0-4.7.5-8.8 1-9.1 2.4-1.5.6-2.5-4.7-2.5h-5.8zm25.7-19.1c.3.5 1.3 1 2.1 1s2.6 1.1 3.9 2.5c1.8 1.7 2.5 2 2.5.9 0-3.4-2-5.4-5.6-5.4-2.1 0-3.3.4-2.9 1m27 19.7c0 11.5-.4 21.8-.8 23-.8 2.3-.7 2.3 6.7 2.3 4.2 0 7.6-.3 7.6-.8 0-.4-.9-1.5-2-2.5-2-1.7-2.1-2.7-1.8-20.5.2-10.3.7-19.5 1.2-20.5.7-1.5.2-1.7-5-1.7h-5.9zm78.2-18.8c-6.6 3.1-11 8.1-13.3 15.2-2 6.3-2 6.5-.1 12.7 1.2 3.9 3 7.4 5 9.3 3.7 3.8 10.7 6.9 15 6.9l3.2-.1-3.5-1.7c-1.9-.9-4.8-3.7-6.5-6-2.9-4.2-3-4.8-3-15 0-10.3.1-10.9 3-15.2 1.7-2.5 4.1-5 5.3-5.6 5.8-2.9 1-3.3-5.1-.5m206-1.3c-.3.4 0 1.6.8 2.8 2.2 3 2.1 34.9 0 39-.8 1.5-1.5 3-1.5 3.2s3.2.4 7.2.4c6.8 0 7-.1 5.5-1.8-2-2.1-2.4-16-.7-19.2.7-1.3.7-2.1 0-2.5-1.5-.9-1.3-19.2.2-20.1.9-.6.5-1-1.2-1.5-3.3-.9-9.5-1.1-10.3-.3m-99.8 1.7c-2 1.5-4.9 7.1-4.9 9.4.1 4 4.5 9.6 9.9 12.4 3 1.6 6 2.9 6.7 2.9.8 0 1.4.3 1.4.7 0 .5 1.7 1.9 3.8 3.3 4.9 3.3 5.2 3.7 5.2 8.9 0 4.4 0 4.4 2 2.6 1.2-1.1 2.8-3.4 3.7-5.2 1.3-2.8 1.3-3.8.3-6.4-1.5-3.4-6.8-8.9-8.7-8.9-.7 0-1.3-.5-1.3-1 0-.6-.6-1-1.4-1-.7 0-1.9-.7-2.6-1.5s-2.2-1.5-3.5-1.5c-2.8 0-10.5-7.1-10.5-9.6 0-1.1.7-3 1.6-4.2 1.6-2.4.8-2.9-1.7-.9m123.9-.6c1.3.3 2.6 1.2 2.8 2.1.3.9 1.2 3.3 2 5.2 1.4 3.2 1.3 3.9-.6 8.2-1.6 3.6-2.8 4.9-6 6.2-2.2.9-4 2-4 2.4 0 1 8.4 11.9 13 17 2.3 2.5 3.8 3.2 7 3.4 5.3.2 5.9-.7 2.8-4-4.7-5.1-11.8-15-11.8-16.5 0-.8 1.7-2.7 3.8-4.3 4.9-3.7 6.1-5.4 6.2-8.4 0-6.2-7.2-12.2-14.4-11.9-2.4.1-2.6.3-.8.6m-202.5.9c-.8.4-.7 1.1.5 2.5 2.2 2.5 3.4 2.4 3-.3-.3-2.2-1.5-3-3.5-2.2M474 385c.6 1.1 1.3 2 1.5 2 .3 0 .5-.9.5-2s-.7-2-1.5-2c-1.3 0-1.4.4-.5 2m36.4 4.5c-3.3 6.6-3.3 7.5-.3 7.5 2.3 0 6.2 8.1 6.3 12.7 0 2.1.6 3.5 1.6 3.8 2.2.7 6 8.8 5.3 11.4-.5 2-.2 2.1 6.6 2.1h7.1l-3-4.2c-1.6-2.2-3-4.9-3-5.8 0-1-.7-2.3-1.5-3s-1.5-2.3-1.5-3.6-.3-2.4-.7-2.4c-.5 0-1.7-1.9-2.7-4.3-3.6-8.1-10.1-20.7-10.6-20.6-.3 0-1.9 2.9-3.6 6.4m-100-3.3c-.4 1.3-1.7 4-3 6-2.2 3.4-1.9 5.8.5 4.3 1.1-.6 5.1 4.6 5.1 6.7 0 .7.7 2.4 1.6 3.6.8 1.2 1.3 3.1.9 4.1-.4 1.4 0 2.3 1.3 3 2.4 1.3 5.5 8.7 4.7 11.2-.6 1.7 0 1.9 6.4 1.9 3.9 0 7.1-.2 7.1-.5 0-.9-4.4-7-5.2-7.3-.5-.2-.8-1-.8-1.8 0-1.3-3.3-8.7-6.8-14.9-.6-1.1-2.7-5.7-4.8-10.3-3.8-8.3-5.7-10-7-6m-174.7 12.9c-.9 1.7-2.6 3.3-3.7 3.6-2.5.7-2.6 2.3-.1 2.3 1.1 0 2.8 1.5 4 3.2l2.1 3.3v-7.8c0-4.2-.1-7.7-.2-7.7-.2 0-1.1 1.4-2.1 3.1m263.7 12.2c-.8 2.1.2 3.5 1.6 2.1.5-.5.6-1.5 0-2.4-.8-1.2-1-1.2-1.6.3M397 412.6c0 .9.5 1.4 1.2 1.2 1.8-.6 2.1-2.8.4-2.8-.9 0-1.6.7-1.6 1.6m50.1 8.6c-.1 4.9.8 5.8 3.9 3.8 1.2-.8 1.1-1.2-.6-3.2-1.2-1.3-2.4-3-2.7-3.8s-.6.6-.6 3.2m-144.3-.4c-.3 1-2.2 2.6-4.2 3.6-2 .9-3.6 1.9-3.6 2.1 0 .3 2 .5 4.4.5 4.1 0 4.4-.2 5-3.2.7-3.4-.8-6.2-1.6-3m-55.3 2.2c-1.6 1.1-4 2-5.2 2s-2.5.4-2.8 1c-.4.6 1.3 1 4.4 1 4.1 0 5.2-.4 6.1-2.1 1.8-3.2.7-4-2.5-1.9m142.5 1.5-2.3 2.5h8.3l-1.6-2.5c-.9-1.4-1.7-2.5-1.8-2.5-.2 0-1.3 1.1-2.6 2.5m102.7-.7c-2.4 2.6-2.1 3.2 1.3 3.2 3.3 0 3.7-.7 1.7-3.4-1.2-1.6-1.4-1.6-3 .2M176 437c0 .6 75.7 1 222.9 1 122.6 0 223.7.3 224.5.6 1 .4 1.6.1 1.6-1 0-1.4-21.3-1.5-224.5-1.6-148.3 0-224.5.3-224.5 1m13.5 20c.3.5 1 1 1.6 1 .5 0 .9-.5.9-1 0-.6-.7-1-1.6-1-.8 0-1.2.4-.9 1m419.5 1c0 .5.5 1 1 1 .6 0 1-.5 1-1 0-.6-.4-1-1-1-.5 0-1 .4-1 1m-26.5 38.3c-.4 1-.5 2.1-.1 2.4 1 1 1.8-.4 1.3-2.4-.4-1.7-.4-1.7-1.2 0m-28.4 42.3c0 1.1.3 1.4.6.6.3-.7.2-1.6-.1-1.9-.3-.4-.6.2-.5 1.3m-11.1 15c0 .8.5 1.2 1 .9.6-.3 1-1 1-1.6 0-.5-.4-.9-1-.9-.5 0-1 .7-1 1.6M529 573c0 .5.5 1 1 1 .6 0 1-.5 1-1 0-.6-.4-1-1-1-.5 0-1 .4-1 1m-251 10c0 .5.5 1 1.1 1 .5 0 .7-.5.4-1-.3-.6-.8-1-1.1-1-.2 0-.4.4-.4 1m242.6 1.7c-1.1 1.1-.6 2.3.9 2.3.8 0 1.5-.4 1.5-.9 0-1.3-1.6-2.2-2.4-1.4m-237.9 3c-.3.5-.1 1.7.4 2.8.7 1.7.8 1.7.8-.8.1-2.7-.4-3.4-1.2-2m233.7 1.7c-.3.8-.4 2.2-.2 3.1.2 1.2.7.7 1.5-1.4.6-1.8.7-3.1.2-3.1s-1.2.6-1.5 1.4M308 625.9c0 .5.5 1.3 1 1.6.6.3 1 .2 1-.4 0-.5-.4-1.3-1-1.6-.5-.3-1-.2-1 .4m179.6 6c-.4.7-.5 1.5-.2 1.8.9.9 1.9-.4 1.4-1.8-.4-1.1-.6-1.1-1.2 0M482 641c0 .5.5 1 1 1 .6 0 1-.5 1-1 0-.6-.4-1-1-1-.5 0-1 .4-1 1m-7.9 11.6c0 1.1.3 1.4.6.6.3-.7.2-1.6-.1-1.9-.3-.4-.6.2-.5 1.3M333 663c0 .5.5 1 1 1 .6 0 1-.5 1-1 0-.6-.4-1-1-1-.5 0-1 .4-1 1m17 24.4c0 .8.7 1.6 1.5 2 1.3.4 1.4.2.5-1.4-1.3-2.3-2-2.6-2-.6m98 .7c-.7 1.1-.9 2.3-.6 2.7.3.3.6 0 .6-.6 0-.7.7-1.2 1.5-1.2 1.7 0 2-1.6.6-2.5-.6-.3-1.5.4-2.1 1.6M388 743c0 .5.5 1 1 1 .6 0 1-.5 1-1 0-.6-.4-1-1-1-.5 0-1 .4-1 1m9 11.3c0 2.5 2.7 4.2 4.5 2.7.8-.7 1.5-1.9 1.5-2.7 0-1.3-.3-1.3-1.5-.3s-1.8 1-3 0-1.5-1-1.5.3"/></g></svg>